<svg width="61" height="62" viewBox="0 0 61 62" fill="none" xmlns="http://www.w3.org/2000/svg"><path clip-rule="evenodd" d="M1.24585 1.91235H59.7054V60.5916H1.24585V1.91235Z" stroke="#fff" stroke-width="2" stroke-miterlimit="22.926" stroke-linecap="round" stroke-linejoin="round"/><path fill-rule="evenodd" clip-rule="evenodd" d="M1.24585 1.91235H59.7054V60.5916H1.24585V1.91235Z" fill="#3C3CE9"/><path fill-rule="evenodd" clip-rule="evenodd" d="M47.8506 26.1628C47.9707 26.4535 47.8952 28.0708 47.8983 28.3785C47.9076 29.1222 47.8983 29.8767 47.8952 30.6204C47.886 32.6011 48.0154 43.5326 47.8336 43.9501C47.581 44.5314 46.7338 44.366 46.0329 44.366H14.863C14.1359 44.366 13.3811 44.5191 13.1008 43.9547C12.9344 43.6207 13.0314 36.1187 13.0314 35.0688C13.0314 34.0901 12.9699 26.9359 13.0423 26.1751L13.9927 27.1075L17.6326 29.9973C17.7435 30.087 17.7836 30.1303 17.8976 30.2215L25.8537 36.6475L28.3091 38.0669C28.323 38.073 28.3599 38.087 28.3738 38.0916C29.5938 38.5508 30.7722 38.7054 32.0523 38.2756C32.5622 38.1024 32.8733 37.9555 33.3555 37.7128C34.0302 37.3695 34.5446 37.0711 35.1007 36.6475L37.6608 34.5354C37.9304 34.3545 38.16 34.0746 38.4295 33.903C38.5404 33.8319 38.4465 33.8999 38.5651 33.804C38.5728 33.7978 38.5835 33.7886 38.5913 33.7824L38.6944 33.6958C38.8531 33.5551 38.9825 33.419 39.1889 33.2613L41.461 31.4631C41.4733 31.4554 41.5057 31.4322 41.5165 31.4244L42.7719 30.4333C43.043 30.1921 43.3296 30.0236 43.6022 29.7685L46.9695 27.1137C47.1405 26.9823 47.2868 26.823 47.4501 26.6576L47.789 26.2911C47.7936 26.2834 47.8013 26.2695 47.8059 26.2617C47.812 26.254 47.8198 26.237 47.8229 26.2308L47.8506 26.1612V26.1628ZM47.6411 18.1876C47.906 18.9916 47.8937 18.2247 47.8952 19.6147C47.8968 20.997 47.2668 22.0731 46.5305 23.1616C45.9205 24.0631 45.352 24.6815 44.571 25.3108L35.9217 32.1836C34.426 33.3649 33.8699 34.0267 32.2017 35.0487C29.9065 36.4526 28.477 34.8879 26.6794 33.569L25.786 32.8176C25.6073 32.6784 25.5333 32.5717 25.3408 32.4387C25.1605 32.312 25.0604 32.2207 24.8864 32.0816L16.6637 25.5505C16.4773 25.4191 16.3171 25.2861 16.1954 25.1763C15.3251 24.3924 14.7474 23.8868 14.1097 22.8137L13.6815 21.9819C13.4967 21.5381 12.5832 18.8493 13.281 18.3082L13.5151 18.1628C13.7354 18.0685 14.7783 18.1149 15.0971 18.1134C23.7973 18.0747 32.5899 18.1752 41.2746 18.118C42.4838 18.1103 46.7415 18.0561 47.6411 18.186V18.1876ZM13.2641 15.2328C11.9255 15.4106 11.1245 16.21 10.5745 17.0867C9.94451 18.0948 10.1263 19.8574 10.1263 21.2057V41.6726C10.1263 42.3946 10.0816 43.2821 10.1402 43.9764C10.2665 45.5133 11.2308 46.4317 12.1981 46.9435C12.2089 46.9481 12.2197 46.9543 12.2305 46.959L12.4893 47.0734C13.4489 47.4228 14.8583 47.2883 15.9351 47.2883C25.7659 47.2883 35.5952 47.2883 45.4244 47.2883C46.1084 47.2883 47.0311 47.3378 47.6703 47.2527C48.0092 47.2079 48.345 47.1182 48.5684 47.0301C48.724 46.9698 48.8287 46.9126 48.9473 46.8492L49.5435 46.4116C49.5496 46.4054 49.5589 46.3946 49.5651 46.3884C49.887 46.0637 50.1196 45.8442 50.3676 45.419C50.9915 44.3505 50.8036 42.659 50.8036 41.2984V23.0781C50.8036 21.8025 50.9946 18.6762 50.5956 17.6108C50.0688 16.2115 48.8149 15.2545 47.293 15.2081C46.5582 15.1849 45.7433 15.1864 45.0055 15.2019C43.5082 15.2313 41.9832 15.2003 40.4798 15.2065C34.4276 15.2313 28.3831 15.1617 22.3293 15.2065C21.4852 15.2127 13.794 15.1632 13.2641 15.2328Z" fill="#FEFEFE"/></svg>