<svg width="62" height="62" viewBox="0 0 62 62" fill="none" xmlns="http://www.w3.org/2000/svg"><path clip-rule="evenodd" d="M1.65564 1.91235H60.1168V60.5916H1.65564V1.91235Z" stroke="#fff" stroke-width="2" stroke-miterlimit="22.926" stroke-linecap="round" stroke-linejoin="round"/><path fill-rule="evenodd" clip-rule="evenodd" d="M1.65564 1.91235H60.1168V60.5916H1.65564V1.91235Z" fill="#3C3CE9"/><path fill-rule="evenodd" clip-rule="evenodd" d="M43.1493 48.5453C42.9783 48.5453 42.8058 48.4865 42.6902 48.4278C42.4052 48.3118 40.6045 46.8306 40.2903 46.5986L34.2304 41.8905C33.6573 41.4545 32.7146 40.6412 32.2017 40.2917C32.0292 40.3799 29.6569 42.6157 29.2841 42.9651C28.8836 43.3145 28.5124 43.7212 28.1135 44.0412C28.0272 44.0985 27.9979 44.1572 27.9132 44.2438L25.9399 46.0466C25.9399 45.7853 26.6547 41.3973 26.6824 41.1653C26.8257 40.3814 26.9412 39.5078 27.0552 38.7239C27.2277 37.6478 27.0552 37.7359 27.6267 37.1839L29.0577 35.8171C29.6862 35.1785 30.5735 34.4224 31.2004 33.7823C31.3437 33.637 31.4299 33.5798 31.5732 33.4344C31.7164 33.2875 31.7734 33.2303 31.9167 33.1128L32.8024 32.2423C33.2322 31.8357 33.6882 31.4584 34.0887 31.0518L34.8019 30.3544C35.2609 29.889 35.7738 29.4824 36.2313 28.9876L37.4898 27.797C37.5761 27.7105 37.6054 27.7105 37.6901 27.6223C37.8334 27.5064 37.9196 27.3904 38.0336 27.2729C38.5204 26.8075 39.0333 26.373 39.4924 25.9076C39.9499 25.4422 40.4628 25.0356 40.9218 24.5408L43.4373 22.1581C43.5513 22.0421 43.6653 21.8968 43.8086 21.8087C44.0673 21.6046 44.3246 21.3726 44.494 21.1129C44.6373 20.9088 44.665 20.8794 44.6373 20.5887C44.4663 19.6007 42.7519 20.966 42.2081 21.2845L39.3491 23.0874C39.0333 23.2915 38.7206 23.4662 38.4048 23.6687L37.4621 24.2795C37.1186 24.482 36.8352 24.6861 36.4917 24.8887C34.8897 25.8767 33.3477 26.8941 31.7457 27.8821C31.4315 28.0862 31.1172 28.2609 30.803 28.465L26.0586 31.4584C25.886 31.5465 25.7428 31.6625 25.5718 31.7785C25.3993 31.8944 25.2575 31.9826 25.085 32.0691C24.9125 32.1867 24.7692 32.2439 24.6275 32.3614L22.397 33.7839C22.34 33.8132 22.3401 33.8426 22.2538 33.872C22.1105 33.9586 21.8533 33.8132 21.7116 33.756L13.6784 30.9946C13.2779 30.8492 12.1919 30.441 11.9054 30.4132C11.9917 30.2957 12.0209 30.3251 12.1627 30.2663L16.6513 28.349C18.2518 27.6826 19.7953 26.9544 21.4235 26.3158C21.6253 26.2292 21.7963 26.1705 21.9966 26.0545L24.9695 24.7758C25.1713 24.6877 25.3716 24.6011 25.5703 24.5129L34.4892 20.6769C34.9189 20.5021 35.2886 20.3568 35.6891 20.1821C36.8336 19.6579 38.0906 19.1647 39.2628 18.6421L47.6102 15.0967C48.2095 14.8338 49.4957 14.37 50.0102 14.0793C50.0102 14.6035 49.5527 16.6661 49.4387 17.3634C49.1229 19.1647 48.7532 21.0248 48.3804 22.7967C47.6672 26.4008 47.008 30.0328 46.2948 33.6354C46.1515 34.3621 46.0083 35.0888 45.865 35.8156C45.5785 37.269 45.2919 38.693 45.0362 40.1742C44.722 41.9183 44.2661 43.8944 43.9795 45.6075C43.9226 45.9276 43.5205 48.1649 43.4358 48.3103C43.3788 48.4262 43.2062 48.5716 43.063 48.5716L43.1493 48.5437V48.5453ZM8.01746 30.0916C8.01746 30.9327 8.13295 31.4862 8.56118 32.1248C8.8477 32.5608 9.24666 32.9087 9.67643 33.1994C10.5052 33.7808 11.8207 34.1287 12.7911 34.4781C13.3349 34.6528 13.8771 34.8569 14.4224 35.0316L17.7081 36.1356C17.9376 36.2222 19.1668 36.6891 19.3671 36.6891C19.3671 36.8639 20.3391 40.0304 20.4808 40.4958C20.6826 41.1344 20.8536 41.7745 21.0538 42.4131C21.5698 43.9825 21.9688 45.5503 22.4833 47.1197C22.9993 48.6906 23.6848 50.2878 25.541 50.2878C25.9707 50.2878 26.456 50.1425 26.7702 49.9972C26.9135 49.9384 27.143 49.8224 27.257 49.7049L28.8297 48.2515C29.087 47.9902 29.3735 47.7861 29.6292 47.497C29.7155 47.4088 29.7155 47.4088 29.8295 47.3223L30.23 46.9728C30.3162 46.9156 30.3455 46.8568 30.4317 46.7703L30.8323 46.4208C30.9755 46.2755 31.0895 46.2167 31.2328 46.0714C31.376 45.926 31.49 45.8673 31.6332 45.722L32.234 45.17C32.3203 45.1112 32.3773 45.0525 32.4342 44.9952C32.5498 45.0246 32.4913 45.0246 32.5775 45.0818C32.6345 45.1406 32.6915 45.17 32.75 45.1978C32.864 45.2859 32.9503 45.3447 33.035 45.4313C33.2368 45.606 33.4648 45.7513 33.6635 45.926C34.7788 46.8275 35.9217 47.6701 37.037 48.5422C37.151 48.6288 37.2372 48.6875 37.3512 48.8035C38.066 49.3849 39.0379 50.1982 39.8097 50.7208L40.7247 51.4181C41.1822 51.7954 42.1249 52.0845 42.8104 52.0845C43.8964 52.0845 44.7544 51.9098 45.5261 51.33C45.7834 51.1274 46.0698 50.8646 46.2978 50.6048C46.4118 50.4595 46.5273 50.3419 46.6121 50.1688C46.8123 49.8193 47.0126 49.5008 47.0696 49.0926L48.898 39.5032C49.756 35.2326 50.5 30.959 51.358 26.6884L52.8445 19.0147C53.0155 18.203 53.758 14.6854 53.758 13.8133C53.758 12.9135 53.4437 12.0693 52.8723 11.4307L52.4717 11.0519C50.614 9.62783 48.556 10.9065 46.7276 11.6611C45.1549 12.2996 43.5544 12.9985 41.9817 13.6665C39.0364 14.9158 36.122 16.2239 33.1767 17.4438L31.148 18.3158C30.233 18.7225 29.3196 19.0998 28.403 19.477L22.3138 22.0932C22.0566 22.2107 21.8856 22.2679 21.6299 22.3854L20.2852 22.9668C18.4567 23.7507 16.6837 24.5361 14.8553 25.2907C14.3978 25.4654 13.9418 25.6695 13.512 25.8736C12.597 26.2524 11.7098 26.6869 10.7963 27.0363C9.70878 27.4723 8.68134 28.1681 8.22385 29.3015C8.13758 29.4762 8.05134 29.8844 8.05134 30.1442L8.02204 30.0869L8.01746 30.0916Z" fill="#fff"/></svg>