<svg width="62" height="62" viewBox="0 0 62 62" fill="none" xmlns="http://www.w3.org/2000/svg"><path clip-rule="evenodd" d="M1.54565 1.91235H60.0053V60.5916H1.54565V1.91235Z" stroke="#fff" stroke-width="2" stroke-miterlimit="22.926" stroke-linecap="round" stroke-linejoin="round"/><path fill-rule="evenodd" clip-rule="evenodd" d="M1.54565 1.91235H60.0053V60.5916H1.54565V1.91235Z" fill="#3C3CE9"/><path fill-rule="evenodd" clip-rule="evenodd" d="M12.6426 23.6008C12.6811 19.9379 14.146 16.7852 16.8094 14.35C17.8738 13.3589 19.3202 11.573 20.9284 11.7725C22.6043 11.9719 23.8197 13.8258 24.6531 15.1401C26.0825 17.3898 28.4239 20.7017 26.2751 23.2204C25.243 24.4357 23.6333 25.0712 22.6998 26.3576C21.7479 27.692 22.2993 29.4299 22.9571 30.7581C24.4543 33.7731 27.0037 36.6305 29.5792 38.7518C30.7315 39.7012 32.298 40.8469 33.8754 40.5763C35.5051 40.3104 36.7698 38.4998 37.979 37.5103C41.0506 35.0039 44.4194 38.4148 46.6823 40.4542C47.7328 41.385 48.9805 42.659 48.9081 44.1867C48.8342 45.7576 46.807 47.061 45.7057 47.9671C42.705 50.4255 38.9633 51.2481 35.1647 50.4549C31.0827 49.5921 27.6445 47.1445 24.5791 44.4124C21.4691 41.6432 18.8103 38.3004 16.5305 34.8214C15.4615 33.1809 14.528 31.4848 13.8564 29.6278C13.1355 27.6487 12.8967 25.6928 12.6457 23.5992C12.6611 21.5753 12.7674 24.6893 12.6457 23.5992L12.6426 23.6008Z" fill="#FEFEFE"/></svg>