<svg width="155" height="60" viewBox="0 0 155 60" fill="none" xmlns="http://www.w3.org/2000/svg"><path fill="#3C3CE9" d="M0.004 0H60.004V60H0.004z"/><path d="M10.3043 39.2725V19.9088H15.6224V39.2725H10.3043ZM34.042 24.5452H28.4783V39.2725H23.1602V24.5452H17.5692V19.9088H34.042V24.5452ZM47.7063 26.2361C47.7063 26.2361 47.5517 26.1452 47.2426 25.9634C46.9335 25.7815 46.5244 25.5815 46.0153 25.3634C45.5063 25.127 44.9517 24.9179 44.3517 24.7361C43.7517 24.5543 43.1608 24.4634 42.579 24.4634C42.1244 24.4634 41.7517 24.5361 41.4608 24.6815C41.1699 24.827 41.0244 25.0725 41.0244 25.4179C41.0244 25.7452 41.1699 26.0088 41.4608 26.2088C41.7517 26.4088 42.1608 26.5906 42.6881 26.7543C43.2335 26.9179 43.879 27.1179 44.6244 27.3543C45.8244 27.7179 46.8608 28.1361 47.7335 28.6088C48.6063 29.0816 49.279 29.6906 49.7517 30.4361C50.2244 31.1634 50.4608 32.1361 50.4608 33.3543C50.4608 34.5179 50.2517 35.4997 49.8335 36.2997C49.4153 37.0816 48.8517 37.7088 48.1426 38.1816C47.4335 38.6543 46.6426 38.9997 45.7699 39.2179C44.8972 39.4179 44.0063 39.5179 43.0972 39.5179C42.1699 39.5179 41.1972 39.427 40.179 39.2452C39.179 39.0452 38.2063 38.7816 37.2608 38.4543C36.3153 38.1088 35.4517 37.7088 34.6699 37.2543L36.9608 32.5906C36.9608 32.5906 37.1426 32.6997 37.5063 32.9179C37.8699 33.1361 38.3517 33.3816 38.9517 33.6543C39.5517 33.927 40.2153 34.1725 40.9426 34.3906C41.6881 34.6088 42.4335 34.7179 43.179 34.7179C43.7608 34.7179 44.1608 34.6452 44.379 34.4997C44.6153 34.3361 44.7335 34.127 44.7335 33.8725C44.7335 33.4906 44.5335 33.1997 44.1335 32.9997C43.7335 32.7816 43.2063 32.5816 42.5517 32.3997C41.9153 32.1997 41.2063 31.9725 40.4244 31.7179C39.2972 31.3361 38.3699 30.9088 37.6426 30.4361C36.9153 29.9452 36.379 29.3725 36.0335 28.7179C35.6881 28.0452 35.5153 27.2361 35.5153 26.2906C35.5153 24.8543 35.8517 23.6543 36.5244 22.6906C37.1972 21.727 38.079 20.9997 39.1699 20.5088C40.279 19.9997 41.4699 19.7452 42.7426 19.7452C43.6881 19.7452 44.5972 19.8634 45.4699 20.0997C46.3608 20.3179 47.1881 20.5906 47.9517 20.9179C48.7335 21.2452 49.4153 21.5543 49.9972 21.8452L47.7063 26.2361Z" fill="#fff"/><path d="M80.0403 39.1364C78.7857 39.1364 77.5857 38.9182 76.4403 38.4818C75.313 38.0273 74.313 37.3727 73.4403 36.5182C72.5675 35.6455 71.8766 34.6 71.3675 33.3818C70.8766 32.1455 70.6312 30.7364 70.6312 29.1545C70.6312 27.7909 70.8857 26.5273 71.3948 25.3636C71.9039 24.2 72.6039 23.1818 73.4948 22.3091C74.4039 21.4182 75.4585 20.7273 76.6585 20.2364C77.8585 19.7455 79.1585 19.5 80.5585 19.5C82.3039 19.5 83.8857 19.8818 85.3039 20.6455C86.7221 21.3909 87.7766 22.4182 88.4675 23.7273L84.513 26.7545C84.1312 25.9909 83.5585 25.3818 82.7948 24.9273C82.0312 24.4545 81.2221 24.2182 80.3675 24.2182C79.7312 24.2182 79.1494 24.3455 78.6221 24.6C78.0948 24.8545 77.6312 25.2091 77.2312 25.6636C76.8494 26.1182 76.5494 26.6636 76.3312 27.3C76.1312 27.9182 76.0312 28.6 76.0312 29.3455C76.0312 30.1091 76.1403 30.8 76.3585 31.4182C76.5766 32.0364 76.8766 32.5727 77.2585 33.0273C77.6585 33.4636 78.1312 33.8091 78.6766 34.0636C79.2221 34.3 79.8312 34.4182 80.5039 34.4182C81.3585 34.4182 82.1766 34.2091 82.9585 33.7909C83.7403 33.3545 84.4494 32.7455 85.0857 31.9636V37.1455C83.6312 38.4727 81.9494 39.1364 80.0403 39.1364ZM84.813 32.5091H81.2403V28.6909H89.2039V39H84.813V32.5091ZM101.211 29.0727C100.211 29.0727 99.3019 29.1818 98.4837 29.4C97.6655 29.6182 97.0564 29.9818 96.6564 30.4909V39H91.4746V24.6545H96.22V27.3818C96.7291 26.4182 97.3655 25.6818 98.1291 25.1727C98.8928 24.6455 99.7019 24.3818 100.556 24.3818C100.756 24.3818 100.893 24.3818 100.965 24.3818C101.056 24.3818 101.138 24.3909 101.211 24.4091V29.0727ZM109.884 39.2727C108.611 39.2727 107.484 39.0727 106.502 38.6727C105.52 38.2727 104.693 37.7273 104.02 37.0364C103.366 36.3273 102.866 35.5273 102.52 34.6364C102.193 33.7455 102.03 32.8091 102.03 31.8273C102.03 30.8455 102.193 29.9091 102.52 29.0182C102.866 28.1091 103.366 27.3091 104.02 26.6182C104.693 25.9273 105.52 25.3818 106.502 24.9818C107.484 24.5818 108.611 24.3818 109.884 24.3818C111.175 24.3818 112.302 24.5818 113.266 24.9818C114.248 25.3818 115.066 25.9273 115.72 26.6182C116.393 27.3091 116.893 28.1091 117.22 29.0182C117.566 29.9091 117.739 30.8455 117.739 31.8273C117.739 32.8091 117.566 33.7455 117.22 34.6364C116.893 35.5273 116.393 36.3273 115.72 37.0364C115.066 37.7273 114.248 38.2727 113.266 38.6727C112.302 39.0727 111.175 39.2727 109.884 39.2727ZM107.348 31.8273C107.348 32.4636 107.457 33.0182 107.675 33.4909C107.893 33.9455 108.193 34.3 108.575 34.5545C108.957 34.7909 109.393 34.9091 109.884 34.9091C110.375 34.9091 110.811 34.7909 111.193 34.5545C111.575 34.3 111.875 33.9455 112.093 33.4909C112.311 33.0182 112.42 32.4636 112.42 31.8273C112.42 31.1909 112.311 30.6455 112.093 30.1909C111.875 29.7182 111.575 29.3636 111.193 29.1273C110.811 28.8727 110.375 28.7455 109.884 28.7455C109.393 28.7455 108.957 28.8727 108.575 29.1273C108.193 29.3636 107.893 29.7182 107.675 30.1909C107.457 30.6455 107.348 31.1909 107.348 31.8273ZM119.437 34.0909V24.6545H124.618V32.9182C124.618 33.5364 124.755 34.0273 125.027 34.3909C125.318 34.7364 125.709 34.9091 126.2 34.9091C126.473 34.9091 126.746 34.8727 127.018 34.8C127.291 34.7273 127.564 34.5818 127.837 34.3636C128.127 34.1455 128.409 33.8364 128.682 33.4364V24.6545H133.864V33.2727C133.864 33.7636 133.937 34.1091 134.082 34.3091C134.227 34.4909 134.482 34.6 134.846 34.6364V39C134.391 39.0909 133.982 39.1545 133.618 39.1909C133.255 39.2455 132.937 39.2727 132.664 39.2727C131.791 39.2727 131.1 39.1091 130.591 38.7818C130.082 38.4545 129.755 37.9545 129.609 37.2818L129.5 36.7636C128.827 37.6545 128.018 38.3 127.073 38.7C126.146 39.0818 125.091 39.2727 123.909 39.2727C122.473 39.2727 121.364 38.8273 120.582 37.9364C119.818 37.0455 119.437 35.7636 119.437 34.0909ZM146.619 39.2727C145.583 39.2727 144.683 39.0727 143.919 38.6727C143.156 38.2545 142.565 37.6545 142.146 36.8727V44.8091H136.965V24.6545H141.465V26.8091C141.974 26.0273 142.601 25.4273 143.346 25.0091C144.11 24.5909 145.028 24.3818 146.101 24.3818C147.065 24.3818 147.946 24.5636 148.746 24.9273C149.546 25.2909 150.246 25.8091 150.846 26.4818C151.446 27.1545 151.91 27.9364 152.237 28.8273C152.565 29.7182 152.728 30.7 152.728 31.7727C152.728 33.2091 152.465 34.4909 151.937 35.6182C151.41 36.7455 150.683 37.6364 149.756 38.2909C148.846 38.9455 147.801 39.2727 146.619 39.2727ZM144.819 34.9091C145.201 34.9091 145.546 34.8273 145.856 34.6636C146.183 34.5 146.465 34.2727 146.701 33.9818C146.937 33.6909 147.119 33.3545 147.246 32.9727C147.374 32.5909 147.437 32.1818 147.437 31.7455C147.437 31.2909 147.365 30.8818 147.219 30.5182C147.092 30.1545 146.901 29.8455 146.646 29.5909C146.392 29.3182 146.092 29.1091 145.746 28.9636C145.401 28.8182 145.019 28.7455 144.601 28.7455C144.365 28.7455 144.128 28.7818 143.892 28.8545C143.674 28.9091 143.465 29 143.265 29.1273C143.065 29.2364 142.865 29.3818 142.665 29.5636C142.483 29.7455 142.31 29.9636 142.146 30.2182V32.7C142.31 33.1182 142.528 33.5 142.801 33.8455C143.092 34.1727 143.41 34.4364 143.756 34.6364C144.101 34.8182 144.456 34.9091 144.819 34.9091Z" fill="#fff"/></svg>