<svg width="180" height="50" viewBox="0 0 180 50" fill="none" xmlns="http://www.w3.org/2000/svg">
<path d="M110.809 29.3909C109.427 30.5545 107.836 31.1364 106.036 31.1364C104.782 31.1364 103.582 30.9182 102.436 30.4818C101.291 30.0273 100.291 29.3727 99.4364 28.5182C98.5818 27.6636 97.9 26.6182 97.3909 25.3818C96.8818 24.1455 96.6273 22.7364 96.6273 21.1545C96.6273 19.7909 96.8818 18.5273 97.3909 17.3636C97.9 16.1818 98.6 15.1636 99.4909 14.3091C100.382 13.4364 101.427 12.7545 102.627 12.2636C103.845 11.7545 105.155 11.5 106.555 11.5C107.427 11.5 108.264 11.6 109.064 11.8C109.864 11.9818 110.6 12.2636 111.273 12.6455C111.964 13.0091 112.582 13.4545 113.127 13.9818C113.673 14.4909 114.118 15.0727 114.464 15.7273L110.509 18.7545C110.127 17.9909 109.555 17.3818 108.791 16.9273C108.027 16.4545 107.218 16.2182 106.364 16.2182C105.727 16.2182 105.145 16.3455 104.618 16.6C104.091 16.8545 103.636 17.2091 103.255 17.6636C102.873 18.1182 102.573 18.6636 102.355 19.3C102.136 19.9182 102.027 20.6 102.027 21.3455C102.027 22.1091 102.136 22.8 102.355 23.4182C102.573 24.0364 102.873 24.5727 103.255 25.0273C103.655 25.4636 104.127 25.8091 104.673 26.0636C105.218 26.3 105.827 26.4182 106.5 26.4182C108.045 26.4182 109.409 25.7818 110.591 24.5091H107.236V20.6909H115.2V31H110.809V29.3909ZM127.207 21.0727C126.207 21.0727 125.298 21.1818 124.48 21.4C123.662 21.6182 123.052 21.9818 122.652 22.4909V31H117.471V16.6545H122.216V19.3818C122.725 18.4182 123.352 17.6818 124.098 17.1727C124.862 16.6455 125.68 16.3818 126.552 16.3818C126.898 16.3818 127.116 16.3909 127.207 16.4091V21.0727ZM135.88 31.2727C134.589 31.2727 133.453 31.0727 132.471 30.6727C131.507 30.2545 130.689 29.7091 130.017 29.0364C129.362 28.3455 128.862 27.5545 128.517 26.6636C128.189 25.7545 128.026 24.8091 128.026 23.8273C128.026 22.8455 128.189 21.9091 128.517 21.0182C128.862 20.1091 129.362 19.3182 130.017 18.6455C130.689 17.9545 131.507 17.4091 132.471 17.0091C133.453 16.5909 134.589 16.3818 135.88 16.3818C137.153 16.3818 138.28 16.5909 139.262 17.0091C140.244 17.4091 141.062 17.9545 141.717 18.6455C142.389 19.3182 142.889 20.1091 143.217 21.0182C143.562 21.9091 143.735 22.8455 143.735 23.8273C143.735 24.8091 143.562 25.7545 143.217 26.6636C142.889 27.5545 142.389 28.3455 141.717 29.0364C141.062 29.7091 140.244 30.2545 139.262 30.6727C138.28 31.0727 137.153 31.2727 135.88 31.2727ZM133.344 23.8273C133.344 24.7909 133.58 25.5455 134.053 26.0909C134.526 26.6364 135.135 26.9091 135.88 26.9091C136.626 26.9091 137.235 26.6364 137.707 26.0909C138.18 25.5455 138.417 24.7909 138.417 23.8273C138.417 22.8636 138.18 22.1091 137.707 21.5636C137.235 21.0182 136.626 20.7455 135.88 20.7455C135.135 20.7455 134.526 21.0182 134.053 21.5636C133.58 22.1091 133.344 22.8636 133.344 23.8273ZM149.905 31.2727C148.451 31.2727 147.342 30.8364 146.578 29.9636C145.814 29.0727 145.433 27.7818 145.433 26.0909V16.6545H150.614V24.9182C150.614 25.5545 150.751 26.0455 151.024 26.3909C151.314 26.7364 151.705 26.9091 152.196 26.9091C152.596 26.9091 153.005 26.8182 153.424 26.6364C153.842 26.4545 154.26 26.0545 154.678 25.4364V16.6545H159.86V25.2727C159.86 25.7636 159.933 26.1091 160.078 26.3091C160.224 26.4909 160.478 26.6 160.842 26.6364V31C159.951 31.1818 159.224 31.2727 158.66 31.2727C156.896 31.2727 155.878 30.6091 155.605 29.2818L155.496 28.7636C154.824 29.6545 154.024 30.3 153.096 30.7C152.169 31.0818 151.105 31.2727 149.905 31.2727ZM172.615 31.2727C171.579 31.2727 170.679 31.0727 169.915 30.6727C169.152 30.2545 168.561 29.6545 168.143 28.8727V36.8091H162.961V16.6545H167.461V18.8091C167.97 18.0273 168.597 17.4273 169.343 17.0091C170.088 16.5909 171.006 16.3818 172.097 16.3818C173.043 16.3818 173.924 16.5727 174.743 16.9545C175.561 17.3182 176.261 17.8273 176.843 18.4818C177.424 19.1364 177.879 19.9182 178.206 20.8273C178.552 21.7364 178.724 22.7182 178.724 23.7727C178.724 24.8455 178.57 25.8455 178.261 26.7727C177.952 27.6818 177.524 28.4727 176.979 29.1455C176.433 29.8182 175.788 30.3455 175.043 30.7273C174.297 31.0909 173.488 31.2727 172.615 31.2727ZM170.815 26.9091C171.197 26.9091 171.543 26.8273 171.852 26.6636C172.179 26.5 172.452 26.2727 172.67 25.9818C172.906 25.6909 173.088 25.3545 173.215 24.9727C173.361 24.5909 173.433 24.1818 173.433 23.7455C173.433 22.8364 173.17 22.1091 172.643 21.5636C172.133 21.0182 171.452 20.7455 170.597 20.7455C169.633 20.7455 168.815 21.2364 168.143 22.2182V24.7C168.397 25.3364 168.77 25.8636 169.261 26.2818C169.752 26.7 170.27 26.9091 170.815 26.9091Z" fill="white"/>
<path fill-rule="evenodd" clip-rule="evenodd" d="M5 29.4637V40.5091H16.1247V29.4637H15.8974V40.2818H5.22727V29.4637H5ZM5 12.9898H5.22727V1.55454H15.8974V12.9898H16.1247V1.32727H5V12.9898ZM30.7934 29.4637V40.5091H41.9181V29.4637H41.6909V40.2818H31.0207V29.4637H30.7934ZM31.0207 12.9898H30.7934V11.0545H19.5761V1.32727H53.0807V11.0545H41.9181V12.9898H41.6909V10.8273H52.8535V1.55454H19.8034V10.8273H31.0207V12.9898ZM64.2967 29.4637C65.0726 29.7616 65.8946 30.0405 66.7628 30.3002C68.2384 30.7306 69.7125 30.9454 71.1855 30.9454C71.7609 30.9454 72.2388 30.9095 72.6224 30.84C73.0072 30.7703 73.283 30.6692 73.4658 30.5481C73.8867 30.257 74.0772 29.9049 74.0772 29.4818C74.0772 29.4758 74.0772 29.4697 74.0771 29.4637H74.3044C74.3045 29.4697 74.3045 29.4758 74.3045 29.4818C74.3045 29.9909 74.0674 30.4091 73.5931 30.7364C73.1554 31.0273 72.3529 31.1727 71.1855 31.1727C69.6899 31.1727 68.1942 30.9545 66.6986 30.5182C65.6224 30.1964 64.6157 29.8448 63.6784 29.4637H64.2967ZM57.2019 29.4637L53.8155 36.3356L53.9993 36.4421C55.5807 37.3586 57.3257 38.164 59.2338 38.859L59.2356 38.8597L59.2374 38.8603C61.1442 39.5182 63.1058 40.0482 65.122 40.4502L65.1243 40.4506L65.1266 40.451C67.1811 40.8167 69.1461 41 71.0214 41C72.8621 41 74.6665 40.7981 76.4344 40.3943L76.4366 40.3938L76.4388 40.3933C78.2135 39.951 79.8246 39.2499 81.2701 38.2893C82.7252 37.3223 83.8811 36.0391 84.7371 34.4438L84.7376 34.4429L84.7382 34.4419C85.4716 33.0432 85.8881 31.3818 85.995 29.4637H85.7673C85.6608 31.3511 85.2506 32.9753 84.5369 34.3364C83.6979 35.9 82.567 37.1545 81.1443 38.1C79.7216 39.0455 78.1348 39.7364 76.3838 40.1727C74.6328 40.5727 72.8453 40.7727 71.0214 40.7727C69.1609 40.7727 67.2093 40.5909 65.1665 40.2273C63.1601 39.8273 61.2085 39.3 59.3116 38.6455C57.4147 37.9545 55.6819 37.1545 54.1133 36.2455L57.4553 29.4637H57.2019ZM66.9059 12.9898H67.1393C67.1063 12.858 67.09 12.719 67.09 12.5727C67.09 12.2596 67.1559 12.0061 67.277 11.8025C67.3976 11.5997 67.5812 11.4322 67.8396 11.3034C68.3818 11.0332 69.0917 10.8909 69.9817 10.8909C71.1251 10.8909 72.2886 11.069 73.4727 11.4267C74.6675 11.7876 75.7701 12.2021 76.7808 12.6699L76.7839 12.6713L76.787 12.6726C77.0401 12.7808 77.2804 12.8865 77.508 12.9898H78.0478C77.6921 12.8207 77.3016 12.6453 76.8763 12.4636C75.8549 11.9909 74.7422 11.5727 73.5384 11.2091C72.3346 10.8455 71.149 10.6636 69.9817 10.6636C69.0697 10.6636 68.3219 10.8091 67.7382 11.1C67.1546 11.3909 66.8627 11.8818 66.8627 12.5727C66.8627 12.718 66.8771 12.8571 66.9059 12.9898ZM80.907 12.9898L84.8652 5.42727C84.798 5.39376 84.73 5.36012 84.6615 5.32637C83.5396 4.77412 82.2395 4.18957 80.7613 3.57273C79.2292 2.91818 77.5694 2.37273 75.7819 1.93636C74.0309 1.46364 72.2069 1.22727 70.31 1.22727C67.7565 1.22727 65.3671 1.73636 63.1419 2.75454C60.9531 3.73636 59.1839 5.19091 57.8342 7.11818C56.698 8.74045 56.0401 10.6977 55.8603 12.9898H55.6323C55.8128 10.6566 56.4818 8.65305 57.648 6.98781C59.0216 5.02647 60.8231 3.54577 63.0481 2.54751C65.3041 1.5154 67.7256 1 70.31 1C72.2251 1 74.0681 1.23853 75.8385 1.71623C77.6355 2.15507 79.3061 2.70397 80.8498 3.36341C82.4214 4.01921 83.7938 4.63935 84.9666 5.22386L85.174 5.32727L81.1635 12.9898H80.907Z" fill="white"/>
<g filter="url(#filter0_d_4601_164)">
<mask id="path-3-outside-1_4601_164" maskUnits="userSpaceOnUse" x="4" y="0" width="84" height="42" fill="black">
<rect fill="white" x="4" width="84" height="42"/>
<path fill-rule="evenodd" clip-rule="evenodd" d="M5 29.4637V40.5091H16.1247V29.4637H15.8974V40.2818H5.22727V29.4637H5ZM5 12.9898H5.22727V1.55454H15.8974V12.9898H16.1247V1.32727H5V12.9898ZM30.7934 29.4637V40.5091H41.9181V29.4637H41.6909V40.2818H31.0207V29.4637H30.7934ZM31.0207 12.9898H30.7934V11.0545H19.5761V1.32727H53.0807V11.0545H41.9181V12.9898H41.6909V10.8273H52.8535V1.55454H19.8034V10.8273H31.0207V12.9898ZM64.2967 29.4637C65.0726 29.7616 65.8946 30.0405 66.7628 30.3002C68.2384 30.7306 69.7125 30.9454 71.1855 30.9454C71.7609 30.9454 72.2388 30.9095 72.6224 30.84C73.0072 30.7703 73.283 30.6692 73.4658 30.5481C73.8867 30.257 74.0772 29.9049 74.0772 29.4818C74.0772 29.4758 74.0772 29.4697 74.0771 29.4637H74.3044C74.3045 29.4697 74.3045 29.4758 74.3045 29.4818C74.3045 29.9909 74.0674 30.4091 73.5931 30.7364C73.1554 31.0273 72.3529 31.1727 71.1855 31.1727C69.6899 31.1727 68.1942 30.9545 66.6986 30.5182C65.6224 30.1964 64.6157 29.8448 63.6784 29.4637H64.2967ZM57.2019 29.4637L53.8155 36.3356L53.9993 36.4421C55.5807 37.3586 57.3257 38.164 59.2338 38.859L59.2356 38.8597L59.2374 38.8603C61.1442 39.5182 63.1058 40.0482 65.122 40.4502L65.1243 40.4506L65.1266 40.451C67.1811 40.8167 69.1461 41 71.0214 41C72.8621 41 74.6665 40.7981 76.4344 40.3943L76.4366 40.3938L76.4388 40.3933C78.2135 39.951 79.8246 39.2499 81.2701 38.2893C82.7252 37.3223 83.8811 36.0391 84.7371 34.4438L84.7376 34.4429L84.7382 34.4419C85.4716 33.0432 85.8881 31.3818 85.995 29.4637H85.7673C85.6608 31.3511 85.2506 32.9753 84.5369 34.3364C83.6979 35.9 82.567 37.1545 81.1443 38.1C79.7216 39.0455 78.1348 39.7364 76.3838 40.1727C74.6328 40.5727 72.8453 40.7727 71.0214 40.7727C69.1609 40.7727 67.2093 40.5909 65.1665 40.2273C63.1601 39.8273 61.2085 39.3 59.3116 38.6455C57.4147 37.9545 55.6819 37.1545 54.1133 36.2455L57.4553 29.4637H57.2019ZM66.9059 12.9898H67.1393C67.1063 12.858 67.09 12.719 67.09 12.5727C67.09 12.2596 67.1559 12.0061 67.277 11.8025C67.3976 11.5997 67.5812 11.4322 67.8396 11.3034C68.3818 11.0332 69.0917 10.8909 69.9817 10.8909C71.1251 10.8909 72.2886 11.069 73.4727 11.4267C74.6675 11.7876 75.7701 12.2021 76.7808 12.6699L76.7839 12.6713L76.787 12.6726C77.0401 12.7808 77.2804 12.8865 77.508 12.9898H78.0478C77.6921 12.8207 77.3016 12.6453 76.8763 12.4636C75.8549 11.9909 74.7422 11.5727 73.5384 11.2091C72.3346 10.8455 71.149 10.6636 69.9817 10.6636C69.0697 10.6636 68.3219 10.8091 67.7382 11.1C67.1546 11.3909 66.8627 11.8818 66.8627 12.5727C66.8627 12.718 66.8771 12.8571 66.9059 12.9898ZM80.907 12.9898L84.8652 5.42727C84.798 5.39376 84.73 5.36012 84.6615 5.32637C83.5396 4.77412 82.2395 4.18957 80.7613 3.57273C79.2292 2.91818 77.5694 2.37273 75.7819 1.93636C74.0309 1.46364 72.2069 1.22727 70.31 1.22727C67.7565 1.22727 65.3671 1.73636 63.1419 2.75454C60.9531 3.73636 59.1839 5.19091 57.8342 7.11818C56.698 8.74045 56.0401 10.6977 55.8603 12.9898H55.6323C55.8128 10.6566 56.4818 8.65305 57.648 6.98781C59.0216 5.02647 60.8231 3.54577 63.0481 2.54751C65.3041 1.5154 67.7256 1 70.31 1C72.2251 1 74.0681 1.23853 75.8385 1.71623C77.6355 2.15507 79.3061 2.70397 80.8498 3.36341C82.4214 4.01921 83.7938 4.63935 84.9666 5.22386L85.174 5.32727L81.1635 12.9898H80.907Z"/>
</mask>
<path fill-rule="evenodd" clip-rule="evenodd" d="M5 29.4637V40.5091H16.1247V29.4637H15.8974V40.2818H5.22727V29.4637H5ZM5 12.9898H5.22727V1.55454H15.8974V12.9898H16.1247V1.32727H5V12.9898ZM30.7934 29.4637V40.5091H41.9181V29.4637H41.6909V40.2818H31.0207V29.4637H30.7934ZM31.0207 12.9898H30.7934V11.0545H19.5761V1.32727H53.0807V11.0545H41.9181V12.9898H41.6909V10.8273H52.8535V1.55454H19.8034V10.8273H31.0207V12.9898ZM64.2967 29.4637C65.0726 29.7616 65.8946 30.0405 66.7628 30.3002C68.2384 30.7306 69.7125 30.9454 71.1855 30.9454C71.7609 30.9454 72.2388 30.9095 72.6224 30.84C73.0072 30.7703 73.283 30.6692 73.4658 30.5481C73.8867 30.257 74.0772 29.9049 74.0772 29.4818C74.0772 29.4758 74.0772 29.4697 74.0771 29.4637H74.3044C74.3045 29.4697 74.3045 29.4758 74.3045 29.4818C74.3045 29.9909 74.0674 30.4091 73.5931 30.7364C73.1554 31.0273 72.3529 31.1727 71.1855 31.1727C69.6899 31.1727 68.1942 30.9545 66.6986 30.5182C65.6224 30.1964 64.6157 29.8448 63.6784 29.4637H64.2967ZM57.2019 29.4637L53.8155 36.3356L53.9993 36.4421C55.5807 37.3586 57.3257 38.164 59.2338 38.859L59.2356 38.8597L59.2374 38.8603C61.1442 39.5182 63.1058 40.0482 65.122 40.4502L65.1243 40.4506L65.1266 40.451C67.1811 40.8167 69.1461 41 71.0214 41C72.8621 41 74.6665 40.7981 76.4344 40.3943L76.4366 40.3938L76.4388 40.3933C78.2135 39.951 79.8246 39.2499 81.2701 38.2893C82.7252 37.3223 83.8811 36.0391 84.7371 34.4438L84.7376 34.4429L84.7382 34.4419C85.4716 33.0432 85.8881 31.3818 85.995 29.4637H85.7673C85.6608 31.3511 85.2506 32.9753 84.5369 34.3364C83.6979 35.9 82.567 37.1545 81.1443 38.1C79.7216 39.0455 78.1348 39.7364 76.3838 40.1727C74.6328 40.5727 72.8453 40.7727 71.0214 40.7727C69.1609 40.7727 67.2093 40.5909 65.1665 40.2273C63.1601 39.8273 61.2085 39.3 59.3116 38.6455C57.4147 37.9545 55.6819 37.1545 54.1133 36.2455L57.4553 29.4637H57.2019ZM66.9059 12.9898H67.1393C67.1063 12.858 67.09 12.719 67.09 12.5727C67.09 12.2596 67.1559 12.0061 67.277 11.8025C67.3976 11.5997 67.5812 11.4322 67.8396 11.3034C68.3818 11.0332 69.0917 10.8909 69.9817 10.8909C71.1251 10.8909 72.2886 11.069 73.4727 11.4267C74.6675 11.7876 75.7701 12.2021 76.7808 12.6699L76.7839 12.6713L76.787 12.6726C77.0401 12.7808 77.2804 12.8865 77.508 12.9898H78.0478C77.6921 12.8207 77.3016 12.6453 76.8763 12.4636C75.8549 11.9909 74.7422 11.5727 73.5384 11.2091C72.3346 10.8455 71.149 10.6636 69.9817 10.6636C69.0697 10.6636 68.3219 10.8091 67.7382 11.1C67.1546 11.3909 66.8627 11.8818 66.8627 12.5727C66.8627 12.718 66.8771 12.8571 66.9059 12.9898ZM80.907 12.9898L84.8652 5.42727C84.798 5.39376 84.73 5.36012 84.6615 5.32637C83.5396 4.77412 82.2395 4.18957 80.7613 3.57273C79.2292 2.91818 77.5694 2.37273 75.7819 1.93636C74.0309 1.46364 72.2069 1.22727 70.31 1.22727C67.7565 1.22727 65.3671 1.73636 63.1419 2.75454C60.9531 3.73636 59.1839 5.19091 57.8342 7.11818C56.698 8.74045 56.0401 10.6977 55.8603 12.9898H55.6323C55.8128 10.6566 56.4818 8.65305 57.648 6.98781C59.0216 5.02647 60.8231 3.54577 63.0481 2.54751C65.3041 1.5154 67.7256 1 70.31 1C72.2251 1 74.0681 1.23853 75.8385 1.71623C77.6355 2.15507 79.3061 2.70397 80.8498 3.36341C82.4214 4.01921 83.7938 4.63935 84.9666 5.22386L85.174 5.32727L81.1635 12.9898H80.907Z" fill="white"/>
<path d="M5 40.5091H4V41.5091H5V40.5091ZM5 29.4637V28.4637H4V29.4637H5ZM16.1247 40.5091V41.5091H17.1247V40.5091H16.1247ZM16.1247 29.4637H17.1247V28.4637H16.1247V29.4637ZM15.8974 29.4637V28.4637H14.8974V29.4637H15.8974ZM15.8974 40.2818V41.2818H16.8974V40.2818H15.8974ZM5.22727 40.2818H4.22727V41.2818H5.22727V40.2818ZM5.22727 29.4637H6.22727V28.4637H5.22727V29.4637ZM5 12.9898H4V13.9898H5V12.9898ZM5.22727 12.9898V13.9898H6.22727V12.9898H5.22727ZM5.22727 1.55454V0.554545H4.22727V1.55454H5.22727ZM15.8974 1.55454H16.8974V0.554545H15.8974V1.55454ZM15.8974 12.9898H14.8974V13.9898H15.8974V12.9898ZM16.1247 12.9898V13.9898H17.1247V12.9898H16.1247ZM16.1247 1.32727H17.1247V0.327272H16.1247V1.32727ZM5 1.32727V0.327272H4V1.32727H5ZM30.7934 40.5091H29.7934V41.5091H30.7934V40.5091ZM30.7934 29.4637V28.4637H29.7934V29.4637H30.7934ZM41.9181 40.5091V41.5091H42.9181V40.5091H41.9181ZM41.9181 29.4637H42.9181V28.4637H41.9181V29.4637ZM41.6909 29.4637V28.4637H40.6909V29.4637H41.6909ZM41.6909 40.2818V41.2818H42.6909V40.2818H41.6909ZM31.0207 40.2818H30.0207V41.2818H31.0207V40.2818ZM31.0207 29.4637H32.0207V28.4637H31.0207V29.4637ZM30.7934 12.9898H29.7934V13.9898H30.7934V12.9898ZM31.0207 12.9898V13.9898H32.0207V12.9898H31.0207ZM30.7934 11.0545H31.7934V10.0545H30.7934V11.0545ZM19.5761 11.0545H18.5761V12.0545H19.5761V11.0545ZM19.5761 1.32727V0.327272H18.5761V1.32727H19.5761ZM53.0807 1.32727H54.0807V0.327272H53.0807V1.32727ZM53.0807 11.0545V12.0545H54.0807V11.0545H53.0807ZM41.9181 11.0545V10.0545H40.9181V11.0545H41.9181ZM41.9181 12.9898V13.9898H42.9181V12.9898H41.9181ZM41.6909 12.9898H40.6909V13.9898H41.6909V12.9898ZM41.6909 10.8273V9.82727H40.6909V10.8273H41.6909ZM52.8535 10.8273V11.8273H53.8535V10.8273H52.8535ZM52.8535 1.55454H53.8535V0.554545H52.8535V1.55454ZM19.8034 1.55454V0.554545H18.8034V1.55454H19.8034ZM19.8034 10.8273H18.8034V11.8273H19.8034V10.8273ZM31.0207 10.8273H32.0207V9.82727H31.0207V10.8273ZM64.2967 29.4637L64.6552 28.5302L64.4822 28.4637H64.2967V29.4637ZM66.7628 30.3002L66.4762 31.2582L66.4827 31.2601L66.7628 30.3002ZM72.6224 30.84L72.8007 31.824V31.824L72.6224 30.84ZM73.4658 30.5481L74.0178 31.3819L74.0263 31.3763L74.0346 31.3706L73.4658 30.5481ZM74.0771 29.4637V28.4637H73.0682L73.0772 29.4725L74.0771 29.4637ZM74.3044 29.4637L75.3044 29.4548L75.2956 28.4637H74.3044V29.4637ZM73.5931 30.7364L74.1466 31.5692L74.1539 31.5644L74.1611 31.5594L73.5931 30.7364ZM66.6986 30.5182L66.4121 31.4763L66.4185 31.4782L66.6986 30.5182ZM63.6784 29.4637V28.4637L63.3017 30.39L63.6784 29.4637ZM57.2019 29.4637V28.4637H56.5799L56.3049 29.0216L57.2019 29.4637ZM53.8155 36.3356L52.9185 35.8935L52.5053 36.732L53.3141 37.2008L53.8155 36.3356ZM53.9993 36.4421L54.5008 35.5769L54.5007 35.5769L53.9993 36.4421ZM59.2338 38.859L59.5771 37.9198L59.576 37.9194L59.2338 38.859ZM59.2356 38.8597L58.8923 39.7989L58.9011 39.8021L58.9099 39.8051L59.2356 38.8597ZM59.2374 38.8603L59.5636 37.915L59.5631 37.9148L59.2374 38.8603ZM65.122 40.4502L64.9265 41.4309L64.9265 41.4309L65.122 40.4502ZM65.1243 40.4506L64.9288 41.4313L64.9388 41.4333L64.9489 41.4351L65.1243 40.4506ZM65.1266 40.451L64.9512 41.4355L64.9514 41.4355L65.1266 40.451ZM76.4344 40.3943L76.2128 39.4192L76.2117 39.4194L76.4344 40.3943ZM76.4366 40.3938L76.6582 41.3689L76.6691 41.3665L76.6799 41.3637L76.4366 40.3938ZM76.4388 40.3933L76.1969 39.4229L76.1954 39.4233L76.4388 40.3933ZM81.2701 38.2893L80.7166 37.4564V37.4564L81.2701 38.2893ZM84.7371 34.4438L85.6183 34.9166L85.6185 34.9162L84.7371 34.4438ZM84.7376 34.4429L85.619 34.9153L85.6198 34.9138L84.7376 34.4429ZM84.7382 34.4419L85.6203 34.9129L85.6238 34.9063L84.7382 34.4419ZM85.995 29.4637L86.9934 29.5193L87.0522 28.4637H85.995V29.4637ZM85.7673 29.4637V28.4637H84.8222L84.7689 29.4073L85.7673 29.4637ZM84.5369 34.3364L85.4181 34.8092L85.4225 34.8008L84.5369 34.3364ZM81.1443 38.1L80.5908 37.2671L80.5908 37.2671L81.1443 38.1ZM76.3838 40.1727L76.6065 41.1476L76.6161 41.1454L76.6256 41.143L76.3838 40.1727ZM65.1665 40.2273L64.9709 41.208L64.9811 41.21L64.9912 41.2118L65.1665 40.2273ZM59.3116 38.6455L58.9693 39.5851L58.9773 39.588L58.9854 39.5908L59.3116 38.6455ZM54.1133 36.2455L53.2163 35.8034L52.8031 36.6419L53.6119 37.1106L54.1133 36.2455ZM57.4553 29.4637L58.3523 29.9057L59.0629 28.4637H57.4553V29.4637ZM66.9059 12.9898L65.9286 13.2016L66.0993 13.9898H66.9059V12.9898ZM67.1393 12.9898V13.9898H68.4204L68.1093 12.747L67.1393 12.9898ZM67.277 11.8025L66.4174 11.2915L66.4174 11.2915L67.277 11.8025ZM67.8396 11.3034L68.2857 12.1984L68.2857 12.1984L67.8396 11.3034ZM73.4727 11.4267L73.7619 10.4694L73.7619 10.4694L73.4727 11.4267ZM76.7808 12.6699L76.3608 13.5774L76.3611 13.5776L76.7808 12.6699ZM76.7839 12.6713L76.3642 13.579L76.3775 13.5851L76.391 13.5909L76.7839 12.6713ZM76.787 12.6726L76.3941 13.5922L76.787 12.6726ZM77.508 12.9898L77.0947 13.9004L77.2917 13.9898H77.508V12.9898ZM78.0478 12.9898V13.9898L78.4771 12.0866L78.0478 12.9898ZM76.8763 12.4636L76.4562 13.3712L76.4697 13.3774L76.4834 13.3832L76.8763 12.4636ZM73.5384 11.2091L73.8276 10.2518L73.8276 10.2518L73.5384 11.2091ZM67.7382 11.1L67.2922 10.205L67.2922 10.205L67.7382 11.1ZM80.907 12.9898L80.021 12.5261L79.2549 13.9898H80.907V12.9898ZM84.8652 5.42727L85.7512 5.89099L86.2242 4.98728L85.3113 4.53228L84.8652 5.42727ZM84.6615 5.32637L85.1031 4.42919L85.1031 4.42918L84.6615 5.32637ZM80.7613 3.57273L80.3684 4.49235L80.3762 4.4956L80.7613 3.57273ZM75.7819 1.93636L75.5212 2.9018L75.533 2.90496L75.5447 2.90783L75.7819 1.93636ZM63.1419 2.75454L63.5512 3.66698L63.5579 3.66387L63.1419 2.75454ZM57.8342 7.11818L58.6533 7.69182L57.8342 7.11818ZM55.8603 12.9898V13.9898H56.7849L56.8572 13.068L55.8603 12.9898ZM55.6323 12.9898L54.6353 12.9127L54.552 13.9898H55.6323V12.9898ZM57.648 6.98781L56.8289 6.41416L56.8289 6.41416L57.648 6.98781ZM63.0481 2.54751L63.4575 3.45992L63.4641 3.45686L63.0481 2.54751ZM75.8385 1.71623L75.578 2.68171L75.5896 2.68484L75.6013 2.68769L75.8385 1.71623ZM80.8498 3.36341L80.457 4.28305L80.4647 4.28628L80.8498 3.36341ZM84.9666 5.22386L85.4127 4.32887L85.4126 4.32887L84.9666 5.22386ZM85.174 5.32727L86.06 5.79099L86.533 4.88729L85.6201 4.43228L85.174 5.32727ZM81.1635 12.9898V13.9898H81.7688L82.0495 13.4535L81.1635 12.9898ZM6 40.5091V29.4637H4V40.5091H6ZM16.1247 39.5091H5V41.5091H16.1247V39.5091ZM15.1247 29.4637V40.5091H17.1247V29.4637H15.1247ZM16.1247 28.4637H15.8974V30.4637H16.1247V28.4637ZM14.8974 29.4637V40.2818H16.8974V29.4637H14.8974ZM15.8974 39.2818H5.22727V41.2818H15.8974V39.2818ZM6.22727 40.2818V29.4637H4.22727V40.2818H6.22727ZM5.22727 28.4637H5V30.4637H5.22727V28.4637ZM5 13.9898H5.22727V11.9898H5V13.9898ZM6.22727 12.9898V1.55454H4.22727V12.9898H6.22727ZM5.22727 2.55454H15.8974V0.554545H5.22727V2.55454ZM14.8974 1.55454V12.9898H16.8974V1.55454H14.8974ZM15.8974 13.9898H16.1247V11.9898H15.8974V13.9898ZM15.1247 1.32727V12.9898H17.1247V1.32727H15.1247ZM5 2.32727H16.1247V0.327272H5V2.32727ZM6 12.9898V1.32727H4V12.9898H6ZM31.7934 40.5091V29.4637H29.7934V40.5091H31.7934ZM41.9181 39.5091H30.7934V41.5091H41.9181V39.5091ZM40.9181 29.4637V40.5091H42.9181V29.4637H40.9181ZM41.9181 28.4637H41.6909V30.4637H41.9181V28.4637ZM42.6909 40.2818V29.4637H40.6909V40.2818H42.6909ZM31.0207 41.2818H41.6909V39.2818H31.0207V41.2818ZM30.0207 29.4637V40.2818H32.0207V29.4637H30.0207ZM31.0207 28.4637H30.7934V30.4637H31.0207V28.4637ZM30.7934 13.9898H31.0207V11.9898H30.7934V13.9898ZM31.7934 12.9898V11.0545H29.7934V12.9898H31.7934ZM30.7934 10.0545H19.5761V12.0545H30.7934V10.0545ZM20.5761 11.0545V1.32727H18.5761V11.0545H20.5761ZM19.5761 2.32727H53.0807V0.327272H19.5761V2.32727ZM52.0807 1.32727V11.0545H54.0807V1.32727H52.0807ZM53.0807 10.0545H41.9181V12.0545H53.0807V10.0545ZM40.9181 11.0545V12.9898H42.9181V11.0545H40.9181ZM41.6909 13.9898H41.9181V11.9898H41.6909V13.9898ZM42.6909 12.9898V10.8273H40.6909V12.9898H42.6909ZM41.6909 11.8273H52.8535V9.82727H41.6909V11.8273ZM53.8535 10.8273V1.55454H51.8535V10.8273H53.8535ZM52.8535 0.554545H19.8034V2.55454H52.8535V0.554545ZM18.8034 1.55454V10.8273H20.8034V1.55454H18.8034ZM19.8034 11.8273H31.0207V9.82727H19.8034V11.8273ZM30.0207 10.8273V12.9898H32.0207V10.8273H30.0207ZM63.9382 30.3972C64.7397 30.705 65.5858 30.9919 66.4762 31.2582L67.0493 29.3421C66.2033 29.0891 65.4055 28.8183 64.6552 28.5302L63.9382 30.3972ZM66.4827 31.2601C68.0455 31.7161 69.6138 31.9454 71.1855 31.9454V29.9454C69.8111 29.9454 68.4313 29.7452 67.0428 29.3402L66.4827 31.2601ZM71.1855 31.9454C71.7974 31.9454 72.3392 31.9076 72.8007 31.824L72.4441 29.856C72.1385 29.9114 71.7243 29.9454 71.1855 29.9454V31.9454ZM72.8007 31.824C73.2532 31.742 73.677 31.6076 74.0178 31.3819L72.9138 29.7143C72.8889 29.7307 72.7611 29.7986 72.4441 29.856L72.8007 31.824ZM74.0346 31.3706C74.6852 30.9207 75.0772 30.2794 75.0772 29.4818H73.0772C73.0772 29.5358 73.0671 29.5576 73.0588 29.5723C73.0476 29.5921 73.0104 29.6472 72.897 29.7256L74.0346 31.3706ZM75.0772 29.4818C75.0772 29.4724 75.0772 29.4634 75.0771 29.4548L73.0772 29.4725C73.0772 29.476 73.0772 29.4791 73.0772 29.4818H75.0772ZM74.3044 28.4637H74.0771V30.4637H74.3044V28.4637ZM73.3045 29.4725C73.3045 29.4752 73.3045 29.4783 73.3045 29.4818H75.3045C75.3045 29.4733 75.3045 29.4642 75.3044 29.4548L73.3045 29.4725ZM73.3045 29.4818C73.3045 29.6149 73.2703 29.7441 73.0252 29.9133L74.1611 31.5594C74.8644 31.074 75.3045 30.3669 75.3045 29.4818H73.3045ZM73.0397 29.9035C72.9793 29.9436 72.818 30.0192 72.4846 30.0797C72.1613 30.1383 71.7326 30.1727 71.1855 30.1727V32.1727C71.8058 32.1727 72.362 32.1345 72.8413 32.0476C73.3104 31.9626 73.7692 31.82 74.1466 31.5692L73.0397 29.9035ZM71.1855 30.1727C69.7886 30.1727 68.3871 29.9691 66.9787 29.5582L66.4185 31.4782C68.0013 31.94 69.5912 32.1727 71.1855 32.1727V30.1727ZM66.9851 29.5601C65.9362 29.2464 64.9598 28.9053 64.0551 28.5373L63.3017 30.39C64.2715 30.7844 65.3086 31.1463 66.4121 31.4763L66.9851 29.5601ZM64.2967 28.4637H63.6784V30.4637H64.2967V28.4637ZM56.3049 29.0216L52.9185 35.8935L54.7125 36.7776L58.0989 29.9057L56.3049 29.0216ZM53.3141 37.2008L53.4979 37.3073L54.5007 35.5769L54.3169 35.4704L53.3141 37.2008ZM53.4979 37.3073C55.1354 38.2563 56.9345 39.0858 58.8916 39.7986L59.576 37.9194C57.717 37.2423 56.026 36.4608 54.5008 35.5769L53.4979 37.3073ZM58.8905 39.7982L58.8923 39.7989L59.5789 37.9204L59.5771 37.9198L58.8905 39.7982ZM58.9099 39.8051L58.9117 39.8058L59.5631 37.9148L59.5613 37.9142L58.9099 39.8051ZM58.9112 39.8056C60.8616 40.4786 62.8668 41.0202 64.9265 41.4309L65.3175 39.4695C63.3448 39.0761 61.4269 38.5579 59.5636 37.915L58.9112 39.8056ZM64.9265 41.4309L64.9288 41.4313L65.3198 39.4699L65.3175 39.4694L64.9265 41.4309ZM64.9489 41.4351L64.9512 41.4355L65.3021 39.4665L65.2998 39.4661L64.9489 41.4351ZM64.9514 41.4355C67.0572 41.8104 69.0811 42 71.0214 42V40C69.2112 40 67.3051 39.8231 65.3019 39.4665L64.9514 41.4355ZM71.0214 42C72.9359 42 74.8151 41.79 76.6571 41.3692L76.2117 39.4194C74.518 39.8063 72.7883 40 71.0214 40V42ZM76.656 41.3694L76.6582 41.3689L76.215 39.4187L76.2128 39.4192L76.656 41.3694ZM76.6799 41.3637L76.6821 41.3632L76.1954 39.4233L76.1933 39.4239L76.6799 41.3637ZM76.6806 41.3636C78.56 40.8952 80.2775 40.1496 81.8236 39.1221L80.7166 37.4564C79.3716 38.3503 77.8671 39.0067 76.1969 39.4229L76.6806 41.3636ZM81.8236 39.1221C83.4213 38.0604 84.6875 36.6513 85.6183 34.9166L83.856 33.971C83.0747 35.427 82.0291 36.5842 80.7166 37.4564L81.8236 39.1221ZM85.6185 34.9162L85.619 34.9153L83.8563 33.9705L83.8558 33.9714L85.6185 34.9162ZM85.6198 34.9138L85.6203 34.9129L83.856 33.971L83.8555 33.9719L85.6198 34.9138ZM85.6238 34.9063C86.4371 33.3553 86.8804 31.548 86.9934 29.5193L84.9965 29.408C84.8958 31.2155 84.5061 32.7312 83.8525 33.9775L85.6238 34.9063ZM85.995 28.4637H85.7673V30.4637H85.995V28.4637ZM84.7689 29.4073C84.6686 31.1842 84.2853 32.6629 83.6513 33.872L85.4225 34.8008C86.2159 33.2877 86.6529 31.5179 86.7658 29.5201L84.7689 29.4073ZM83.6557 33.8635C82.8915 35.2878 81.8709 36.4165 80.5908 37.2671L81.6978 38.9329C83.2631 37.8926 84.5042 36.5121 85.418 34.8092L83.6557 33.8635ZM80.5908 37.2671C79.2687 38.1458 77.7883 38.7921 76.142 39.2024L76.6256 41.143C78.4813 40.6806 80.1746 39.9451 81.6978 38.9329L80.5908 37.2671ZM76.1611 39.1978C74.4843 39.5809 72.7715 39.7727 71.0214 39.7727V41.7727C72.9191 41.7727 74.7813 41.5646 76.6065 41.1476L76.1611 39.1978ZM71.0214 39.7727C69.226 39.7727 67.3332 39.5972 65.3417 39.2427L64.9912 41.2118C67.0854 41.5846 69.0959 41.7727 71.0214 41.7727V39.7727ZM65.362 39.2466C63.3991 38.8552 61.4911 38.3397 59.6378 37.7001L58.9854 39.5908C60.9258 40.2603 62.9212 40.7993 64.9709 41.208L65.362 39.2466ZM59.6538 37.7058C57.8059 37.0328 56.1272 36.2568 54.6147 35.3803L53.6119 37.1106C55.2366 38.0523 57.0234 38.8763 58.9693 39.5851L59.6538 37.7058ZM55.0103 36.6875L58.3523 29.9057L56.5583 29.0216L53.2163 35.8034L55.0103 36.6875ZM57.4553 28.4637H57.2019V30.4637H57.4553V28.4637ZM66.9059 13.9898H67.1393V11.9898H66.9059V13.9898ZM68.1093 12.747C68.0979 12.7014 68.09 12.6446 68.09 12.5727H66.09C66.09 12.7935 66.1146 13.0145 66.1692 13.2326L68.1093 12.747ZM68.09 12.5727C68.09 12.4018 68.1249 12.3331 68.1366 12.3135L66.4174 11.2915C66.1869 11.6791 66.09 12.1173 66.09 12.5727H68.09ZM68.1365 12.3135C68.1457 12.2981 68.1742 12.254 68.2857 12.1984L67.3936 10.4084C66.9881 10.6105 66.6494 10.9012 66.4174 11.2915L68.1365 12.3135ZM68.2857 12.1984C68.6454 12.0191 69.1886 11.8909 69.9817 11.8909V9.89091C68.9949 9.89091 68.1182 10.0472 67.3935 10.4084L68.2857 12.1984ZM69.9817 11.8909C71.0199 11.8909 72.0859 12.0524 73.1835 12.3839L73.7619 10.4694C72.4912 10.0855 71.2304 9.89091 69.9817 9.89091V11.8909ZM73.1835 12.3839C74.3387 12.7329 75.397 13.1314 76.3608 13.5774L77.2008 11.7624C76.1431 11.2728 74.9963 10.8423 73.7619 10.4694L73.1835 12.3839ZM76.3611 13.5776L76.3642 13.579L77.2036 11.7636L77.2005 11.7622L76.3611 13.5776ZM76.391 13.5909L76.3941 13.5922L77.1798 11.753L77.1767 11.7517L76.391 13.5909ZM76.3941 13.5922C76.641 13.6977 76.8745 13.8004 77.0947 13.9004L77.9214 12.0792C77.6863 11.9725 77.4391 11.8638 77.1798 11.753L76.3941 13.5922ZM77.508 13.9898H78.0478V11.9898H77.508V13.9898ZM78.4771 12.0866C78.1075 11.911 77.7046 11.7301 77.2691 11.544L76.4834 13.3832C76.8985 13.5606 77.2767 13.7305 77.6185 13.893L78.4771 12.0866ZM77.2963 11.5561C76.2279 11.0616 75.071 10.6274 73.8276 10.2518L73.2493 12.1664C74.4135 12.518 75.4818 12.9202 76.4562 13.3712L77.2963 11.5561ZM73.8276 10.2518C72.5372 9.86203 71.2543 9.66363 69.9817 9.66363V11.6636C71.0438 11.6636 72.132 11.8289 73.2493 12.1664L73.8276 10.2518ZM69.9817 9.66363C68.9729 9.66363 68.0583 9.82314 67.2922 10.205L68.1843 11.995C68.5855 11.795 69.1666 11.6636 69.9817 11.6636V9.66363ZM67.2922 10.205C66.8535 10.4236 66.4794 10.7424 66.222 11.1754C65.9667 11.6049 65.8627 12.0852 65.8627 12.5727H67.8627C67.8627 12.3694 67.9047 12.2587 67.9412 12.1974C67.9756 12.1395 68.0393 12.0673 68.1843 11.995L67.2922 10.205ZM65.8627 12.5727C65.8627 12.7843 65.8837 12.9946 65.9286 13.2016L67.8832 12.7781C67.8705 12.7195 67.8627 12.6518 67.8627 12.5727H65.8627ZM81.793 13.4535L85.7512 5.89099L83.9792 4.96355L80.021 12.5261L81.793 13.4535ZM85.3113 4.53228C85.2425 4.49801 85.1731 4.46365 85.1031 4.42919L84.2198 6.22355C84.2869 6.2566 84.3534 6.28951 84.4191 6.32226L85.3113 4.53228ZM85.1031 4.42918C83.9584 3.86567 82.6387 3.27258 81.1464 2.64985L80.3762 4.4956C81.8403 5.10656 83.1208 5.68257 84.2198 6.22356L85.1031 4.42918ZM81.1542 2.65313C79.5667 1.97496 77.8543 1.41292 76.0191 0.964892L75.5447 2.90783C77.2844 3.33253 78.8916 3.8614 80.3684 4.49232L81.1542 2.65313ZM76.0425 0.970928C74.2027 0.474226 72.2909 0.227273 70.31 0.227273V2.22727C72.123 2.22727 73.8591 2.45304 75.5212 2.9018L76.0425 0.970928ZM70.31 0.227273C67.6193 0.227273 65.0873 0.764681 62.7258 1.84521L63.5579 3.66387C65.6469 2.70804 67.8937 2.22727 70.31 2.22727V0.227273ZM62.7326 1.84214C60.3825 2.89631 58.4704 4.46642 57.0151 6.54454L58.6533 7.69182C59.8974 5.91539 61.5237 4.57642 63.5512 3.66695L62.7326 1.84214ZM57.0151 6.54454C55.761 8.33524 55.0548 10.4704 54.8633 12.9116L56.8572 13.068C57.0253 10.9249 57.6351 9.14565 58.6533 7.69182L57.0151 6.54454ZM55.6323 13.9898H55.8603V11.9898H55.6323V13.9898ZM56.6293 13.0669C56.7982 10.8828 57.4192 9.05776 58.4671 7.56145L56.8289 6.41416C55.5444 8.24835 54.8273 10.4303 54.6353 12.9127L56.6293 13.0669ZM58.4671 7.56145C59.7351 5.75094 61.3937 4.3858 63.4575 3.45989L62.6388 1.63512C60.2524 2.70574 58.3081 4.302 56.8289 6.41416L58.4671 7.56145ZM63.4641 3.45686C65.5839 2.48709 67.8628 2 70.31 2V0C67.5884 0 65.0243 0.543708 62.6321 1.63816L63.4641 3.45686ZM70.31 2C72.1411 2 73.8964 2.22795 75.578 2.68171L76.099 0.750765C74.2399 0.249113 72.309 0 70.31 0V2ZM75.6013 2.68769C77.3505 3.11486 78.9685 3.64718 80.457 4.28302L81.2427 2.4438C79.6437 1.76075 77.9205 1.19528 76.0757 0.744781L75.6013 2.68769ZM80.4647 4.28628C82.0214 4.93588 83.3727 5.54676 84.5205 6.11885L85.4126 4.32887C84.215 3.73193 82.8213 3.10253 81.2349 2.44054L80.4647 4.28628ZM84.5205 6.11885L84.728 6.22226L85.6201 4.43228L85.4127 4.32887L84.5205 6.11885ZM84.2881 4.86355L80.2775 12.5261L82.0495 13.4535L86.06 5.79099L84.2881 4.86355ZM80.907 13.9898H81.1635V11.9898H80.907V13.9898Z" fill="white" mask="url(#path-3-outside-1_4601_164)"/>
</g>
<path d="M11.9247 24V18.1818H14.3509C14.7865 18.1818 15.151 18.2434 15.4446 18.3665C15.7401 18.4896 15.9616 18.6619 16.1094 18.8835C16.259 19.1051 16.3338 19.3617 16.3338 19.6534C16.3338 19.875 16.2874 20.0729 16.1946 20.2472C16.1018 20.4195 15.974 20.5625 15.8111 20.6761C15.6482 20.7898 15.4598 20.8693 15.2457 20.9148V20.9716C15.4806 20.983 15.6974 21.0464 15.8963 21.1619C16.0971 21.2775 16.258 21.4384 16.3793 21.6449C16.5005 21.8494 16.5611 22.0919 16.5611 22.3722C16.5611 22.6847 16.4815 22.964 16.3224 23.2102C16.1634 23.4545 15.9332 23.6477 15.6321 23.7898C15.331 23.9299 14.9654 24 14.5355 24H11.9247ZM13.331 22.8665H14.2003C14.5052 22.8665 14.7296 22.8087 14.8736 22.6932C15.0194 22.5777 15.0923 22.4167 15.0923 22.2102C15.0923 22.0606 15.0573 21.9318 14.9872 21.8239C14.9171 21.714 14.8177 21.6297 14.6889 21.571C14.5601 21.5104 14.4058 21.4801 14.2259 21.4801H13.331V22.8665ZM13.331 20.5739H14.1094C14.2628 20.5739 14.3991 20.5483 14.5185 20.4972C14.6378 20.446 14.7306 20.3722 14.7969 20.2756C14.8651 20.179 14.8991 20.0625 14.8991 19.9261C14.8991 19.7311 14.83 19.5777 14.6918 19.4659C14.5535 19.3542 14.367 19.2983 14.1321 19.2983H13.331V20.5739ZM17.0469 19.3239V18.1818H21.9645V19.3239H20.2003V24H18.8139V19.3239H17.0469ZM22.6513 24V18.1818H24.0575V22.858H26.478V24H22.6513ZM30.1832 24H28.6719L30.6349 18.1818H32.5071L34.4702 24H32.9588L31.5923 19.6477H31.5469L30.1832 24ZM29.9815 21.7102H33.1406V22.7784H29.9815V21.7102ZM39.071 18.1818V19.3239H36.5028V24H35.0966V18.1818H39.071ZM39.7607 24V18.1818H43.8175V19.3239H41.1669V20.517H43.6101V21.6619H41.1669V22.858H43.8175V24H39.7607ZM44.6982 24V18.1818H46.1044V20.517H48.397V18.1818H49.8004V24H48.397V21.6619H46.1044V24H44.6982ZM50.4922 19.3239V18.1818H55.4098V19.3239H53.6456V24H52.2592V19.3239H50.4922ZM61.1122 20.2898H59.6918C59.6728 20.1439 59.634 20.0123 59.5753 19.8949C59.5166 19.7775 59.4389 19.6771 59.3423 19.5938C59.2457 19.5104 59.1312 19.447 58.9986 19.4034C58.8679 19.358 58.723 19.3352 58.5639 19.3352C58.2817 19.3352 58.0384 19.4044 57.8338 19.5426C57.6312 19.6809 57.4749 19.8807 57.3651 20.142C57.2571 20.4034 57.2031 20.7197 57.2031 21.0909C57.2031 21.4773 57.258 21.8011 57.3679 22.0625C57.4796 22.322 57.6359 22.518 57.8366 22.6506C58.0393 22.7812 58.2789 22.8466 58.5554 22.8466C58.7107 22.8466 58.8518 22.8267 58.9787 22.7869C59.1075 22.7472 59.2202 22.6894 59.3168 22.6136C59.4152 22.536 59.4957 22.4422 59.5582 22.3324C59.6226 22.2206 59.6671 22.0947 59.6918 21.9545L61.1122 21.9631C61.0876 22.2206 61.0128 22.4744 60.8878 22.7244C60.7647 22.9744 60.5952 23.2027 60.3793 23.4091C60.1634 23.6136 59.9001 23.7765 59.5895 23.8977C59.2808 24.0189 58.9266 24.0795 58.527 24.0795C58.0005 24.0795 57.5289 23.964 57.1122 23.733C56.6974 23.5 56.3698 23.161 56.1293 22.7159C55.8887 22.2708 55.7685 21.7292 55.7685 21.0909C55.7685 20.4508 55.8906 19.9081 56.1349 19.4631C56.3793 19.018 56.7098 18.6799 57.1264 18.4489C57.5431 18.2178 58.0099 18.1023 58.527 18.1023C58.8793 18.1023 59.205 18.1515 59.5043 18.25C59.8035 18.3466 60.0668 18.4886 60.294 18.6761C60.5213 18.8617 60.706 19.09 60.848 19.3608C60.9901 19.6316 61.0781 19.9413 61.1122 20.2898ZM61.7266 19.3239V18.1818H66.6442V19.3239H64.88V24H63.4936V19.3239H61.7266ZM67.331 24V18.1818H69.7571C70.1927 18.1818 70.5573 18.2434 70.8509 18.3665C71.1463 18.4896 71.3679 18.6619 71.5156 18.8835C71.6652 19.1051 71.7401 19.3617 71.7401 19.6534C71.7401 19.875 71.6937 20.0729 71.6009 20.2472C71.508 20.4195 71.3802 20.5625 71.2173 20.6761C71.0545 20.7898 70.866 20.8693 70.652 20.9148V20.9716C70.8868 20.983 71.1037 21.0464 71.3026 21.1619C71.5033 21.2775 71.6643 21.4384 71.7855 21.6449C71.9067 21.8494 71.9673 22.0919 71.9673 22.3722C71.9673 22.6847 71.8878 22.964 71.7287 23.2102C71.5696 23.4545 71.3395 23.6477 71.0384 23.7898C70.7372 23.9299 70.3717 24 69.9418 24H67.331ZM68.7372 22.8665H69.6065C69.9115 22.8665 70.1359 22.8087 70.2798 22.6932C70.4257 22.5777 70.4986 22.4167 70.4986 22.2102C70.4986 22.0606 70.4635 21.9318 70.3935 21.8239C70.3234 21.714 70.224 21.6297 70.0952 21.571C69.9664 21.5104 69.812 21.4801 69.6321 21.4801H68.7372V22.8665ZM68.7372 20.5739H69.5156C69.669 20.5739 69.8054 20.5483 69.9247 20.4972C70.044 20.446 70.1368 20.3722 70.2031 20.2756C70.2713 20.179 70.3054 20.0625 70.3054 19.9261C70.3054 19.7311 70.2363 19.5777 70.098 19.4659C69.9598 19.3542 69.7732 19.2983 69.5384 19.2983H68.7372V20.5739ZM78.1349 21.0909C78.1349 21.7311 78.0118 22.2737 77.7656 22.7188C77.5194 23.1638 77.1861 23.5019 76.7656 23.733C76.3471 23.964 75.8774 24.0795 75.3565 24.0795C74.8338 24.0795 74.3632 23.9631 73.9446 23.7301C73.526 23.4972 73.1937 23.1591 72.9474 22.7159C72.7031 22.2708 72.581 21.7292 72.581 21.0909C72.581 20.4508 72.7031 19.9081 72.9474 19.4631C73.1937 19.018 73.526 18.6799 73.9446 18.4489C74.3632 18.2178 74.8338 18.1023 75.3565 18.1023C75.8774 18.1023 76.3471 18.2178 76.7656 18.4489C77.1861 18.6799 77.5194 19.018 77.7656 19.4631C78.0118 19.9081 78.1349 20.4508 78.1349 21.0909ZM76.6974 21.0909C76.6974 20.7121 76.6435 20.392 76.5355 20.1307C76.4295 19.8693 76.276 19.6714 76.0753 19.5369C75.8764 19.4025 75.6368 19.3352 75.3565 19.3352C75.0781 19.3352 74.8385 19.4025 74.6378 19.5369C74.437 19.6714 74.2827 19.8693 74.1747 20.1307C74.0687 20.392 74.0156 20.7121 74.0156 21.0909C74.0156 21.4697 74.0687 21.7898 74.1747 22.0511C74.2827 22.3125 74.437 22.5104 74.6378 22.6449C74.8385 22.7794 75.0781 22.8466 75.3565 22.8466C75.6368 22.8466 75.8764 22.7794 76.0753 22.6449C76.276 22.5104 76.4295 22.3125 76.5355 22.0511C76.6435 21.7898 76.6974 21.4697 76.6974 21.0909Z" fill="white"/>
<defs>
<filter id="filter0_d_4601_164" x="0" y="0" width="91.0522" height="50" filterUnits="userSpaceOnUse" color-interpolation-filters="sRGB">
<feFlood flood-opacity="0" result="BackgroundImageFix"/>
<feColorMatrix in="SourceAlpha" type="matrix" values="0 0 0 0 0 0 0 0 0 0 0 0 0 0 0 0 0 0 127 0" result="hardAlpha"/>
<feOffset dy="4"/>
<feGaussianBlur stdDeviation="2"/>
<feComposite in2="hardAlpha" operator="out"/>
<feColorMatrix type="matrix" values="0 0 0 0 0 0 0 0 0 0 0 0 0 0 0 0 0 0 0.25 0"/>
<feBlend mode="normal" in2="BackgroundImageFix" result="effect1_dropShadow_4601_164"/>
<feBlend mode="normal" in="SourceGraphic" in2="effect1_dropShadow_4601_164" result="shape"/>
</filter>
</defs>
</svg>
