<svg width="254" height="254" viewBox="0 0 254 254" fill="none" xmlns="http://www.w3.org/2000/svg"><path d="M240.328 0H12.7206C5.69521 0 0 5.7166 0 12.7684V241.231C0 248.283 5.69521 253.999 12.7206 253.999H240.328C247.353 253.999 253.049 248.283 253.049 241.231V12.7684C253.049 5.7166 247.353 0 240.328 0Z" fill="#FEFEFE"/><path d="M126.687 24.2398C129.226 24.2398 131.285 22.1735 131.285 19.6245C131.285 17.0755 129.226 15.0091 126.687 15.0091C124.147 15.0091 122.089 17.0755 122.089 19.6245C122.089 22.1735 124.147 24.2398 126.687 24.2398Z" fill="#2B2A29"/><path d="M137.4 24.2398C139.94 24.2398 141.998 22.1735 141.998 19.6245C141.998 17.0755 139.94 15.0091 137.4 15.0091C134.861 15.0091 132.802 17.0755 132.802 19.6245C132.802 22.1735 134.861 24.2398 137.4 24.2398Z" fill="#2B2A29"/><path d="M115.973 34.9936C118.513 34.9936 120.571 32.9272 120.571 30.3782C120.571 27.8292 118.513 25.7628 115.973 25.7628C113.434 25.7628 111.375 27.8292 111.375 30.3782C111.375 32.9272 113.434 34.9936 115.973 34.9936Z" fill="#2B2A29"/><path d="M148.114 34.9936C150.653 34.9936 152.712 32.9272 152.712 30.3782C152.712 27.8292 150.653 25.7628 148.114 25.7628C145.574 25.7628 143.516 27.8292 143.516 30.3782C143.516 32.9272 145.574 34.9936 148.114 34.9936Z" fill="#2B2A29"/><path d="M109.858 46.6688H100.663V41.1319C100.663 38.5467 102.686 36.5165 105.261 36.5165C107.835 36.5165 109.858 38.5467 109.858 41.1319V46.6688Z" fill="#2B2A29"/><path d="M109.858 46.3472H100.662V57.424H109.858V46.3472Z" fill="#2B2A29"/><path d="M120.572 57.4225H111.377V51.8856C111.377 49.3004 113.399 47.2702 115.975 47.2702C118.549 47.2702 120.572 49.3004 120.572 51.8856V57.4225Z" fill="#2B2A29"/><path d="M137.4 56.501C139.94 56.501 141.998 54.4346 141.998 51.8856C141.998 49.3366 139.94 47.2702 137.4 47.2702C134.861 47.2702 132.802 49.3366 132.802 51.8856C132.802 54.4346 134.861 56.501 137.4 56.501Z" fill="#2B2A29"/><path d="M152.712 57.4225H143.516V51.8856C143.516 49.3004 145.538 47.2702 148.114 47.2702C150.689 47.2702 152.712 49.3004 152.712 51.8856V57.4225Z" fill="#2B2A29"/><path d="M109.858 57.1009H100.662V68.1777H109.858V57.1009Z" fill="#2B2A29"/><path d="M115.973 67.2531C113.398 67.2531 111.375 65.223 111.375 62.6378V57.1009H120.57V62.6378C120.57 65.223 118.547 67.2531 115.973 67.2531Z" fill="#2B2A29"/><path d="M126.687 67.2531C129.226 67.2531 131.285 65.1868 131.285 62.6378C131.285 60.0888 129.226 58.0224 126.687 58.0224C124.147 58.0224 122.089 60.0888 122.089 62.6378C122.089 65.1868 124.147 67.2531 126.687 67.2531Z" fill="#2B2A29"/><path d="M148.114 67.2531C145.538 67.2531 143.516 65.223 143.516 62.6378V57.1009H152.712V62.6378C152.712 65.223 150.689 67.2531 148.114 67.2531Z" fill="#2B2A29"/><path d="M109.858 67.8546H100.662V78.9315H109.858V67.8546Z" fill="#2B2A29"/><path d="M137.4 78.0068C139.94 78.0068 141.998 75.9405 141.998 73.3915C141.998 70.8425 139.94 68.7761 137.4 68.7761C134.861 68.7761 132.802 70.8425 132.802 73.3915C132.802 75.9405 134.861 78.0068 137.4 78.0068Z" fill="#2B2A29"/><path d="M109.858 78.6083H100.662V89.6852H109.858V78.6083Z" fill="#2B2A29"/><path d="M131.285 89.6852H122.09V84.1467C122.09 81.5615 124.113 79.5314 126.687 79.5314C129.262 79.5314 131.285 81.5615 131.285 84.1467V89.6852Z" fill="#2B2A29"/><path d="M148.114 88.7606C150.653 88.7606 152.712 86.6942 152.712 84.1452C152.712 81.5962 150.653 79.5298 148.114 79.5298C145.574 79.5298 143.516 81.5962 143.516 84.1452C143.516 86.6942 145.574 88.7606 148.114 88.7606Z" fill="#2B2A29"/><path d="M105.26 99.5158C102.684 99.5158 100.662 97.4857 100.662 94.9004V89.3636H109.856V94.9004C109.856 97.4857 107.834 99.5158 105.26 99.5158Z" fill="#2B2A29"/><path d="M126.687 99.5158C124.113 99.5158 122.09 97.4857 122.09 94.9004V89.3636H131.285V94.9004C131.285 97.4857 129.262 99.5158 126.687 99.5158Z" fill="#2B2A29"/><path d="M19.5539 110.268C22.0933 110.268 24.152 108.202 24.152 105.653C24.152 103.104 22.0933 101.037 19.5539 101.037C17.0144 101.037 14.9558 103.104 14.9558 105.653C14.9558 108.202 17.0144 110.268 19.5539 110.268Z" fill="#2B2A29"/><path d="M40.9807 110.268C43.5201 110.268 45.5787 108.202 45.5787 105.653C45.5787 103.104 43.5201 101.037 40.9807 101.037C38.4412 101.037 36.3826 103.104 36.3826 105.653C36.3826 108.202 38.4412 110.268 40.9807 110.268Z" fill="#2B2A29"/><path d="M51.6926 110.268C54.232 110.268 56.2906 108.202 56.2906 105.653C56.2906 103.104 54.232 101.037 51.6926 101.037C49.1531 101.037 47.0945 103.104 47.0945 105.653C47.0945 108.202 49.1531 110.268 51.6926 110.268Z" fill="#2B2A29"/><path d="M62.4062 110.268C64.9456 110.268 67.0043 108.202 67.0043 105.653C67.0043 103.104 64.9456 101.037 62.4062 101.037C59.8667 101.037 57.8081 103.104 57.8081 105.653C57.8081 108.202 59.8667 110.268 62.4062 110.268Z" fill="#2B2A29"/><path d="M73.1196 110.268C75.659 110.268 77.7177 108.202 77.7177 105.653C77.7177 103.104 75.659 101.037 73.1196 101.037C70.5801 101.037 68.5215 103.104 68.5215 105.653C68.5215 108.202 70.5801 110.268 73.1196 110.268Z" fill="#2B2A29"/><path d="M83.8329 110.268C86.3724 110.268 88.431 108.202 88.431 105.653C88.431 103.104 86.3724 101.037 83.8329 101.037C81.2935 101.037 79.2349 103.104 79.2349 105.653C79.2349 108.202 81.2935 110.268 83.8329 110.268Z" fill="#2B2A29"/><path d="M137.4 110.268C139.94 110.268 141.998 108.202 141.998 105.653C141.998 103.104 139.94 101.037 137.4 101.037C134.861 101.037 132.802 103.104 132.802 105.653C132.802 108.202 134.861 110.268 137.4 110.268Z" fill="#2B2A29"/><path d="M174.137 111.191H164.943V105.654C164.943 103.069 166.965 101.039 169.541 101.039C172.115 101.039 174.137 103.069 174.137 105.654V111.191Z" fill="#2B2A29"/><path d="M184.851 111.191H175.656V105.654C175.656 103.069 177.679 101.039 180.254 101.039C182.828 101.039 184.851 103.069 184.851 105.654V111.191Z" fill="#2B2A29"/><path d="M195.564 111.191H186.37V105.654C186.37 103.069 188.392 101.039 190.966 101.039C193.542 101.039 195.564 103.069 195.564 105.654V111.191Z" fill="#2B2A29"/><path d="M206.278 111.191H197.083V105.654C197.083 103.069 199.106 101.039 201.68 101.039C204.255 101.039 206.278 103.069 206.278 105.654V111.191Z" fill="#2B2A29"/><path d="M216.991 111.191H207.795V105.654C207.795 103.069 209.819 101.039 212.393 101.039C214.969 101.039 216.991 103.069 216.991 105.654V111.191Z" fill="#2B2A29"/><path d="M30.2673 121.022C32.8067 121.022 34.8654 118.955 34.8654 116.406C34.8654 113.857 32.8067 111.791 30.2673 111.791C27.7278 111.791 25.6692 113.857 25.6692 116.406C25.6692 118.955 27.7278 121.022 30.2673 121.022Z" fill="#2B2A29"/><path d="M105.26 121.022C107.799 121.022 109.858 118.955 109.858 116.406C109.858 113.857 107.799 111.791 105.26 111.791C102.721 111.791 100.662 113.857 100.662 116.406C100.662 118.955 102.721 121.022 105.26 121.022Z" fill="#2B2A29"/><path d="M152.712 121.945H143.516V116.408C143.516 113.823 145.538 111.792 148.114 111.792C150.689 111.792 152.712 113.823 152.712 116.408V121.945Z" fill="#2B2A29"/><path d="M158.827 121.022C161.367 121.022 163.425 118.955 163.425 116.406C163.425 113.857 161.367 111.791 158.827 111.791C156.288 111.791 154.229 113.857 154.229 116.406C154.229 118.955 156.288 121.022 158.827 121.022Z" fill="#2B2A29"/><path d="M174.139 110.868H164.943V121.945H174.139V110.868Z" fill="#2B2A29"/><path d="M184.852 110.868H175.656V121.945H184.852V110.868Z" fill="#2B2A29"/><path d="M190.966 121.022C188.392 121.022 186.37 118.992 186.37 116.408V110.869H195.564V116.408C195.564 118.992 193.542 121.022 190.966 121.022Z" fill="#2B2A29"/><path d="M206.279 110.868H197.083V121.945H206.279V110.868Z" fill="#2B2A29"/><path d="M216.993 110.868H207.796V121.945H216.993V110.868Z" fill="#2B2A29"/><path d="M233.82 121.022C236.359 121.022 238.418 118.955 238.418 116.406C238.418 113.857 236.359 111.791 233.82 111.791C231.281 111.791 229.222 113.857 229.222 116.406C229.222 118.955 231.281 121.022 233.82 121.022Z" fill="#2B2A29"/><path d="M24.152 132.698H14.9558V127.16C14.9558 124.576 16.9784 122.546 19.5539 122.546C22.1294 122.546 24.152 124.576 24.152 127.16V132.698Z" fill="#2B2A29"/><path d="M62.4062 131.775C64.9456 131.775 67.0043 129.709 67.0043 127.16C67.0043 124.611 64.9456 122.545 62.4062 122.545C59.8667 122.545 57.8081 124.611 57.8081 127.16C57.8081 129.709 59.8667 131.775 62.4062 131.775Z" fill="#2B2A29"/><path d="M73.1196 131.775C75.659 131.775 77.7177 129.709 77.7177 127.16C77.7177 124.611 75.659 122.545 73.1196 122.545C70.5801 122.545 68.5215 124.611 68.5215 127.16C68.5215 129.709 70.5801 131.775 73.1196 131.775Z" fill="#2B2A29"/><path d="M83.8329 131.775C86.3724 131.775 88.431 129.709 88.431 127.16C88.431 124.611 86.3724 122.545 83.8329 122.545C81.2935 122.545 79.2349 124.611 79.2349 127.16C79.2349 129.709 81.2935 131.775 83.8329 131.775Z" fill="#2B2A29"/><path d="M99.1461 132.698H89.95V127.16C89.95 124.576 91.9725 122.546 94.548 122.546C97.1236 122.546 99.1461 124.576 99.1461 127.16V132.698Z" fill="#2B2A29"/><path d="M152.712 121.622H143.516V132.698H152.712V121.622Z" fill="#2B2A29"/><path d="M174.139 121.622H164.943V132.698H174.139V121.622Z" fill="#2B2A29"/><path d="M184.852 121.622H175.656V132.698H184.852V121.622Z" fill="#2B2A29"/><path d="M206.279 121.622H197.083V132.698H206.279V121.622Z" fill="#2B2A29"/><path d="M216.993 121.622H207.796V132.698H216.993V121.622Z" fill="#2B2A29"/><path d="M223.106 131.775C225.646 131.775 227.704 129.709 227.704 127.16C227.704 124.611 225.646 122.545 223.106 122.545C220.567 122.545 218.508 124.611 218.508 127.16C218.508 129.709 220.567 131.775 223.106 131.775Z" fill="#2B2A29"/><path d="M19.5539 142.529C16.9784 142.529 14.9558 140.499 14.9558 137.914V132.377H24.152V137.914C24.152 140.499 22.1294 142.529 19.5539 142.529Z" fill="#2B2A29"/><path d="M40.9807 142.529C43.5201 142.529 45.5787 140.463 45.5787 137.914C45.5787 135.365 43.5201 133.298 40.9807 133.298C38.4412 133.298 36.3826 135.365 36.3826 137.914C36.3826 140.463 38.4412 142.529 40.9807 142.529Z" fill="#2B2A29"/><path d="M56.2908 143.452H47.0962V137.914C47.0962 135.33 49.1187 133.3 51.6927 133.3C54.2683 133.3 56.2908 135.33 56.2908 137.914V143.452Z" fill="#2B2A29"/><path d="M99.1447 132.375H89.9485V143.452H99.1447V132.375Z" fill="#2B2A29"/><path d="M152.712 132.375H143.516V143.452H152.712V132.375Z" fill="#2B2A29"/><path d="M158.827 142.529C161.367 142.529 163.425 140.463 163.425 137.914C163.425 135.365 161.367 133.298 158.827 133.298C156.288 133.298 154.229 135.365 154.229 137.914C154.229 140.463 156.288 142.529 158.827 142.529Z" fill="#2B2A29"/><path d="M174.139 132.375H164.943V143.452H174.139V132.375Z" fill="#2B2A29"/><path d="M184.852 132.375H175.656V143.452H184.852V132.375Z" fill="#2B2A29"/><path d="M201.68 142.529C199.106 142.529 197.083 140.499 197.083 137.914V132.377H206.278V137.914C206.278 140.499 204.255 142.529 201.68 142.529Z" fill="#2B2A29"/><path d="M212.393 142.529C209.819 142.529 207.795 140.499 207.795 137.914V132.377H216.991V137.914C216.991 140.499 214.969 142.529 212.393 142.529Z" fill="#2B2A29"/><path d="M30.2673 153.283C32.8067 153.283 34.8654 151.216 34.8654 148.667C34.8654 146.118 32.8067 144.052 30.2673 144.052C27.7278 144.052 25.6692 146.118 25.6692 148.667C25.6692 151.216 27.7278 153.283 30.2673 153.283Z" fill="#2B2A29"/><path d="M51.6927 153.283C49.1187 153.283 47.0962 151.253 47.0962 148.667V143.131H56.2908V148.667C56.2908 151.253 54.2683 153.283 51.6927 153.283Z" fill="#2B2A29"/><path d="M83.8329 153.283C86.3724 153.283 88.431 151.216 88.431 148.667C88.431 146.118 86.3724 144.052 83.8329 144.052C81.2935 144.052 79.2349 146.118 79.2349 148.667C79.2349 151.216 81.2935 153.283 83.8329 153.283Z" fill="#2B2A29"/><path d="M94.5466 153.283C91.971 153.283 89.9485 151.253 89.9485 148.667V143.131H99.1447V148.667C99.1447 151.253 97.1221 153.283 94.5466 153.283Z" fill="#2B2A29"/><path d="M109.858 154.206H100.663V148.667C100.663 146.084 102.686 144.054 105.261 144.054C107.835 144.054 109.858 146.084 109.858 148.667V154.206Z" fill="#2B2A29"/><path d="M120.572 154.206H111.377V148.667C111.377 146.084 113.399 144.054 115.975 144.054C118.549 144.054 120.572 146.084 120.572 148.667V154.206Z" fill="#2B2A29"/><path d="M148.114 153.283C145.538 153.283 143.516 151.253 143.516 148.667V143.131H152.712V148.667C152.712 151.253 150.689 153.283 148.114 153.283Z" fill="#2B2A29"/><path d="M174.139 143.129H164.943V154.206H174.139V143.129Z" fill="#2B2A29"/><path d="M180.254 153.283C177.679 153.283 175.656 151.253 175.656 148.667V143.131H184.851V148.667C184.851 151.253 182.828 153.283 180.254 153.283Z" fill="#2B2A29"/><path d="M227.706 154.206H218.51V148.667C218.51 146.084 220.533 144.054 223.108 144.054C225.684 144.054 227.706 146.084 227.706 148.667V154.206Z" fill="#2B2A29"/><path d="M105.26 164.037C102.684 164.037 100.662 162.006 100.662 159.421V153.884H109.856V159.421C109.856 162.006 107.834 164.037 105.26 164.037Z" fill="#2B2A29"/><path d="M115.973 164.037C113.398 164.037 111.375 162.006 111.375 159.421V153.884H120.57V159.421C120.57 162.006 118.547 164.037 115.973 164.037Z" fill="#2B2A29"/><path d="M163.425 164.958H154.229V159.421C154.229 156.836 156.252 154.806 158.827 154.806C161.403 154.806 163.425 156.836 163.425 159.421V164.958Z" fill="#2B2A29"/><path d="M169.541 164.037C166.965 164.037 164.943 162.006 164.943 159.421V153.884H174.137V159.421C174.137 162.006 172.115 164.037 169.541 164.037Z" fill="#2B2A29"/><path d="M201.68 164.037C204.219 164.037 206.278 161.97 206.278 159.421C206.278 156.872 204.219 154.806 201.68 154.806C199.14 154.806 197.082 156.872 197.082 159.421C197.082 161.97 199.14 164.037 201.68 164.037Z" fill="#2B2A29"/><path d="M227.704 153.883H218.508V164.96H227.704V153.883Z" fill="#2B2A29"/><path d="M233.82 164.037C236.359 164.037 238.418 161.97 238.418 159.421C238.418 156.872 236.359 154.806 233.82 154.806C231.281 154.806 229.222 156.872 229.222 159.421C229.222 161.97 231.281 164.037 233.82 164.037Z" fill="#2B2A29"/><path d="M131.285 175.712H122.09V170.175C122.09 167.59 124.113 165.56 126.687 165.56C129.262 165.56 131.285 167.59 131.285 170.175V175.712Z" fill="#2B2A29"/><path d="M137.4 174.79C139.94 174.79 141.998 172.724 141.998 170.175C141.998 167.626 139.94 165.56 137.4 165.56C134.861 165.56 132.802 167.626 132.802 170.175C132.802 172.724 134.861 174.79 137.4 174.79Z" fill="#2B2A29"/><path d="M148.114 174.79C150.653 174.79 152.712 172.724 152.712 170.175C152.712 167.626 150.653 165.56 148.114 165.56C145.574 165.56 143.516 167.626 143.516 170.175C143.516 172.724 145.574 174.79 148.114 174.79Z" fill="#2B2A29"/><path d="M163.425 164.636H154.229V175.713H163.425V164.636Z" fill="#2B2A29"/><path d="M184.851 175.712H175.656V170.175C175.656 167.59 177.679 165.56 180.254 165.56C182.828 165.56 184.851 167.59 184.851 170.175V175.712Z" fill="#2B2A29"/><path d="M216.991 175.712H207.795V170.175C207.795 167.59 209.819 165.56 212.393 165.56C214.969 165.56 216.991 167.59 216.991 170.175V175.712Z" fill="#2B2A29"/><path d="M227.704 164.636H218.508V175.713H227.704V164.636Z" fill="#2B2A29"/><path d="M109.858 186.465H100.663V180.929C100.663 178.343 102.686 176.313 105.261 176.313C107.835 176.313 109.858 178.343 109.858 180.929V186.465Z" fill="#2B2A29"/><path d="M120.572 186.465H111.377V180.929C111.377 178.343 113.399 176.313 115.975 176.313C118.549 176.313 120.572 178.343 120.572 180.929V186.465Z" fill="#2B2A29"/><path d="M126.687 185.542C124.113 185.542 122.09 183.512 122.09 180.929V175.39H131.285V180.929C131.285 183.512 129.262 185.542 126.687 185.542Z" fill="#2B2A29"/><path d="M158.827 185.542C156.252 185.542 154.229 183.512 154.229 180.929V175.39H163.425V180.929C163.425 183.512 161.403 185.542 158.827 185.542Z" fill="#2B2A29"/><path d="M174.137 186.465H164.943V180.929C164.943 178.343 166.965 176.313 169.541 176.313C172.115 176.313 174.137 178.343 174.137 180.929V186.465Z" fill="#2B2A29"/><path d="M180.254 185.542C177.679 185.542 175.656 183.512 175.656 180.929V175.39H184.851V180.929C184.851 183.512 182.828 185.542 180.254 185.542Z" fill="#2B2A29"/><path d="M212.393 185.542C209.819 185.542 207.795 183.512 207.795 180.929V175.39H216.991V180.929C216.991 183.512 214.969 185.542 212.393 185.542Z" fill="#2B2A29"/><path d="M223.106 185.542C220.531 185.542 218.508 183.512 218.508 180.929V175.39H227.704V180.929C227.704 183.512 225.682 185.542 223.106 185.542Z" fill="#2B2A29"/><path d="M233.82 185.544C236.359 185.544 238.418 183.478 238.418 180.929C238.418 178.38 236.359 176.313 233.82 176.313C231.281 176.313 229.222 178.38 229.222 180.929C229.222 183.478 231.281 185.544 233.82 185.544Z" fill="#2B2A29"/><path d="M109.858 186.144H100.662V197.221H109.858V186.144Z" fill="#2B2A29"/><path d="M115.973 196.296C113.398 196.296 111.375 194.266 111.375 191.682V186.144H120.57V191.682C120.57 194.266 118.547 196.296 115.973 196.296Z" fill="#2B2A29"/><path d="M174.139 186.144H164.943V197.221H174.139V186.144Z" fill="#2B2A29"/><path d="M109.858 196.898H100.662V207.974H109.858V196.898Z" fill="#2B2A29"/><path d="M169.541 207.05C166.965 207.05 164.943 205.02 164.943 202.434V196.898H174.137V202.434C174.137 205.02 172.115 207.05 169.541 207.05Z" fill="#2B2A29"/><path d="M180.254 207.051C182.794 207.051 184.852 204.985 184.852 202.436C184.852 199.887 182.794 197.821 180.254 197.821C177.715 197.821 175.656 199.887 175.656 202.436C175.656 204.985 177.715 207.051 180.254 207.051Z" fill="#2B2A29"/><path d="M195.564 207.974H186.37V202.436C186.37 199.852 188.392 197.822 190.966 197.822C193.542 197.822 195.564 199.852 195.564 202.436V207.974Z" fill="#2B2A29"/><path d="M216.991 207.974H207.795V202.436C207.795 199.852 209.819 197.822 212.393 197.822C214.969 197.822 216.991 199.852 216.991 202.436V207.974Z" fill="#2B2A29"/><path d="M105.26 217.804C102.684 217.804 100.662 215.773 100.662 213.188V207.651H109.856V213.188C109.856 215.773 107.834 217.804 105.26 217.804Z" fill="#2B2A29"/><path d="M120.572 218.728H111.377V213.19C111.377 210.606 113.399 208.576 115.975 208.576C118.549 208.576 120.572 210.606 120.572 213.19V218.728Z" fill="#2B2A29"/><path d="M126.687 217.804C129.226 217.804 131.285 215.737 131.285 213.188C131.285 210.639 129.226 208.573 126.687 208.573C124.147 208.573 122.089 210.639 122.089 213.188C122.089 215.737 124.147 217.804 126.687 217.804Z" fill="#2B2A29"/><path d="M148.114 217.804C150.653 217.804 152.712 215.737 152.712 213.188C152.712 210.639 150.653 208.573 148.114 208.573C145.574 208.573 143.516 210.639 143.516 213.188C143.516 215.737 145.574 217.804 148.114 217.804Z" fill="#2B2A29"/><path d="M158.827 217.804C161.367 217.804 163.425 215.737 163.425 213.188C163.425 210.639 161.367 208.573 158.827 208.573C156.288 208.573 154.229 210.639 154.229 213.188C154.229 215.737 156.288 217.804 158.827 217.804Z" fill="#2B2A29"/><path d="M195.566 207.651H186.37V218.728H195.566V207.651Z" fill="#2B2A29"/><path d="M216.993 207.651H207.796V218.728H216.993V207.651Z" fill="#2B2A29"/><path d="M115.973 228.559C113.398 228.559 111.375 226.529 111.375 223.943V218.407H120.57V223.943C120.57 226.529 118.547 228.559 115.973 228.559Z" fill="#2B2A29"/><path d="M141.998 229.48H132.804V223.943C132.804 221.358 134.826 219.328 137.4 219.328C139.976 219.328 141.998 221.358 141.998 223.943V229.48Z" fill="#2B2A29"/><path d="M174.137 229.48H164.943V223.943C164.943 221.358 166.965 219.328 169.541 219.328C172.115 219.328 174.137 221.358 174.137 223.943V229.48Z" fill="#2B2A29"/><path d="M190.966 228.559C188.392 228.559 186.37 226.529 186.37 223.943V218.407H195.564V223.943C195.564 226.529 193.542 228.559 190.966 228.559Z" fill="#2B2A29"/><path d="M216.993 218.405H207.796V229.482H216.993V218.405Z" fill="#2B2A29"/><path d="M105.26 239.311C107.799 239.311 109.858 237.245 109.858 234.696C109.858 232.147 107.799 230.08 105.26 230.08C102.721 230.08 100.662 232.147 100.662 234.696C100.662 237.245 102.721 239.311 105.26 239.311Z" fill="#2B2A29"/><path d="M126.687 239.311C129.226 239.311 131.285 237.245 131.285 234.696C131.285 232.147 129.226 230.08 126.687 230.08C124.147 230.08 122.089 232.147 122.089 234.696C122.089 237.245 124.147 239.311 126.687 239.311Z" fill="#2B2A29"/><path d="M137.4 239.312C134.826 239.312 132.804 237.282 132.804 234.697V229.16H141.998V234.697C141.998 237.282 139.976 239.312 137.4 239.312Z" fill="#2B2A29"/><path d="M148.114 239.311C150.653 239.311 152.712 237.245 152.712 234.696C152.712 232.147 150.653 230.08 148.114 230.08C145.574 230.08 143.516 232.147 143.516 234.696C143.516 237.245 145.574 239.311 148.114 239.311Z" fill="#2B2A29"/><path d="M158.827 239.311C161.367 239.311 163.425 237.245 163.425 234.696C163.425 232.147 161.367 230.08 158.827 230.08C156.288 230.08 154.229 232.147 154.229 234.696C154.229 237.245 156.288 239.311 158.827 239.311Z" fill="#2B2A29"/><path d="M169.541 239.312C166.965 239.312 164.943 237.282 164.943 234.697V229.16H174.137V234.697C174.137 237.282 172.115 239.312 169.541 239.312Z" fill="#2B2A29"/><path d="M201.68 239.311C204.219 239.311 206.278 237.245 206.278 234.696C206.278 232.147 204.219 230.08 201.68 230.08C199.14 230.08 197.082 232.147 197.082 234.696C197.082 237.245 199.14 239.311 201.68 239.311Z" fill="#2B2A29"/><path d="M212.393 239.312C209.819 239.312 207.795 237.282 207.795 234.697V229.16H216.991V234.697C216.991 237.282 214.969 239.312 212.393 239.312Z" fill="#2B2A29"/><path d="M223.106 239.311C225.646 239.311 227.704 237.245 227.704 234.696C227.704 232.147 225.646 230.08 223.106 230.08C220.567 230.08 218.508 232.147 218.508 234.696C218.508 237.245 220.567 239.311 223.106 239.311Z" fill="#2B2A29"/><path d="M14.0361 14.0861V89.362H89.0303V14.0861H14.0361ZM78.3169 78.6083H24.7496V24.8413H78.3169V78.6083Z" fill="#2B2A29"/><path d="M164.023 14.0861V89.362H239.017V14.0861H164.023ZM228.304 78.6083H174.738V24.8413H228.304V78.6083Z" fill="#2B2A29"/><path d="M14.0361 164.636V239.912H89.0303V164.636H14.0361ZM78.3169 229.16H24.7496V175.392H78.3169V229.16Z" fill="#2B2A29"/><path d="M67.6035 35.5935H35.4631V67.8546H67.6035V35.5935Z" fill="#2B2A29"/><path d="M217.59 35.5935H185.45V67.8546H217.59V35.5935Z" fill="#2B2A29"/><path d="M67.6035 186.144H35.4631V218.405H67.6035V186.144Z" fill="#2B2A29"/><path clip-rule="evenodd" d="M97.5457 97.9124H156.005V156.592H97.5457V97.9124Z" stroke="#fff" stroke-width="2" stroke-miterlimit="22.926" stroke-linecap="round" stroke-linejoin="round"/><path fill-rule="evenodd" clip-rule="evenodd" d="M97.5457 97.9124H156.005V156.592H97.5457V97.9124Z" fill="#3C3CE9"/><path fill-rule="evenodd" clip-rule="evenodd" d="M108.643 119.601C108.681 115.938 110.146 112.785 112.809 110.35C113.874 109.359 115.32 107.573 116.928 107.772C118.604 107.972 119.82 109.826 120.653 111.14C122.083 113.39 124.424 116.702 122.275 119.22C121.243 120.436 119.633 121.071 118.7 122.358C117.748 123.692 118.299 125.43 118.957 126.758C120.454 129.773 123.004 132.63 125.579 134.752C126.731 135.701 128.298 136.847 129.875 136.576C131.505 136.31 132.77 134.5 133.979 133.51C137.051 131.004 140.419 134.415 142.682 136.454C143.733 137.385 144.981 138.659 144.908 140.187C144.834 141.758 142.807 143.061 141.706 143.967C138.705 146.425 134.963 147.248 131.165 146.455C127.083 145.592 123.645 143.144 120.579 140.412C117.469 137.643 114.81 134.3 112.531 130.821C111.462 129.181 110.528 127.485 109.856 125.628C109.136 123.649 108.897 121.693 108.646 119.599C108.661 117.575 108.767 120.689 108.646 119.599L108.643 119.601Z" fill="#FEFEFE"/></svg>