<svg width="254" height="254" viewBox="0 0 254 254" fill="none" xmlns="http://www.w3.org/2000/svg"><path d="M240.689 0.00031662H13.0817C6.0563 0.00031662 0.361084 5.71692 0.361084 12.7687V241.231C0.361084 248.283 6.0563 254 13.0817 254H240.689C247.715 254 253.41 248.283 253.41 241.231V12.7687C253.41 5.71692 247.715 0.00031662 240.689 0.00031662Z" fill="#FEFEFE"/><path d="M121.885 23.3925H114.159V18.7401C114.159 16.5708 115.858 14.8638 118.021 14.8638C120.184 14.8638 121.885 16.5708 121.885 18.7401V23.3925Z" fill="#2B2A29"/><path d="M145.02 22.6163C147.153 22.6163 148.882 20.8809 148.882 18.7401C148.882 16.5993 147.153 14.8638 145.02 14.8638C142.887 14.8638 141.158 16.5993 141.158 18.7401C141.158 20.8809 142.887 22.6163 145.02 22.6163Z" fill="#2B2A29"/><path d="M166.881 23.3925H159.156V18.7401C159.156 16.5708 160.855 14.8638 163.018 14.8638C165.18 14.8638 166.881 16.5708 166.881 18.7401V23.3925Z" fill="#2B2A29"/><path d="M112.885 32.4253H105.16V27.7729C105.16 25.602 106.861 23.8966 109.024 23.8966C111.185 23.8966 112.885 25.602 112.885 27.7729V32.4253Z" fill="#2B2A29"/><path d="M118.021 31.6492C115.858 31.6492 114.159 29.9437 114.159 27.7729V23.1204H121.885V27.7729C121.885 29.9437 120.184 31.6492 118.021 31.6492Z" fill="#2B2A29"/><path d="M136.021 31.6492C138.154 31.6492 139.883 29.9137 139.883 27.7729C139.883 25.6321 138.154 23.8966 136.021 23.8966C133.888 23.8966 132.159 25.6321 132.159 27.7729C132.159 29.9137 133.888 31.6492 136.021 31.6492Z" fill="#2B2A29"/><path d="M154.019 31.6492C156.152 31.6492 157.881 29.9137 157.881 27.7729C157.881 25.6321 156.152 23.8966 154.019 23.8966C151.886 23.8966 150.157 25.6321 150.157 27.7729C150.157 29.9137 151.886 31.6492 154.019 31.6492Z" fill="#2B2A29"/><path d="M166.88 23.1204H159.156V32.4238H166.88V23.1204Z" fill="#2B2A29"/><path d="M94.8876 41.4581H87.1625V36.8072C87.1625 34.6364 88.8615 32.9294 91.0243 32.9294C93.187 32.9294 94.8876 34.6364 94.8876 36.8072V41.4581Z" fill="#2B2A29"/><path d="M109.024 40.682C106.861 40.682 105.16 38.9765 105.16 36.8057V32.1532H112.885V36.8057C112.885 38.9765 111.185 40.682 109.024 40.682Z" fill="#2B2A29"/><path d="M130.884 41.4581H123.158V36.8072C123.158 34.6364 124.859 32.9294 127.022 32.9294C129.184 32.9294 130.884 34.6364 130.884 36.8072V41.4581Z" fill="#2B2A29"/><path d="M163.018 40.682C160.855 40.682 159.156 38.9765 159.156 36.8057V32.1532H166.881V36.8057C166.881 38.9765 165.18 40.682 163.018 40.682Z" fill="#2B2A29"/><path d="M94.886 41.1876H87.1625V50.491H94.886V41.1876Z" fill="#2B2A29"/><path d="M100.023 49.7148C102.156 49.7148 103.885 47.9793 103.885 45.8385C103.885 43.6977 102.156 41.9622 100.023 41.9622C97.8904 41.9622 96.1615 43.6977 96.1615 45.8385C96.1615 47.9793 97.8904 49.7148 100.023 49.7148Z" fill="#2B2A29"/><path d="M118.023 49.7148C120.156 49.7148 121.885 47.9793 121.885 45.8385C121.885 43.6977 120.156 41.9622 118.023 41.9622C115.89 41.9622 114.161 43.6977 114.161 45.8385C114.161 47.9793 115.89 49.7148 118.023 49.7148Z" fill="#2B2A29"/><path d="M130.884 41.1876H123.16V50.491H130.884V41.1876Z" fill="#2B2A29"/><path d="M139.883 50.4909H132.157V45.8385C132.157 43.6676 133.858 41.9622 136.019 41.9622C138.182 41.9622 139.883 43.6676 139.883 45.8385V50.4909Z" fill="#2B2A29"/><path d="M145.02 49.7148C147.153 49.7148 148.882 47.9793 148.882 45.8385C148.882 43.6977 147.153 41.9622 145.02 41.9622C142.887 41.9622 141.158 43.6977 141.158 45.8385C141.158 47.9793 142.887 49.7148 145.02 49.7148Z" fill="#2B2A29"/><path d="M154.019 49.7148C156.152 49.7148 157.881 47.9793 157.881 45.8385C157.881 43.6977 156.152 41.9622 154.019 41.9622C151.886 41.9622 150.157 43.6977 150.157 45.8385C150.157 47.9793 151.886 49.7148 154.019 49.7148Z" fill="#2B2A29"/><path d="M94.886 50.2204H87.1625V59.5238H94.886V50.2204Z" fill="#2B2A29"/><path d="M112.885 59.5238H105.16V54.8728C105.16 52.702 106.861 50.995 109.024 50.995C111.185 50.995 112.885 52.702 112.885 54.8728V59.5238Z" fill="#2B2A29"/><path d="M127.022 58.7476C124.859 58.7476 123.158 57.0421 123.158 54.8713V50.2188H130.884V54.8713C130.884 57.0421 129.184 58.7476 127.022 58.7476Z" fill="#2B2A29"/><path d="M139.883 50.2204H132.159V59.5238H139.883V50.2204Z" fill="#2B2A29"/><path d="M166.881 59.5238H159.156V54.8728C159.156 52.702 160.855 50.995 163.018 50.995C165.18 50.995 166.881 52.702 166.881 54.8728V59.5238Z" fill="#2B2A29"/><path d="M94.886 59.2532H87.1625V68.5566H94.886V59.2532Z" fill="#2B2A29"/><path d="M112.884 59.2532H105.16V68.5566H112.884V59.2532Z" fill="#2B2A29"/><path d="M136.019 67.7819C133.857 67.7819 132.157 66.0749 132.157 63.9041V59.2532H139.883V63.9041C139.883 66.0749 138.182 67.7819 136.019 67.7819Z" fill="#2B2A29"/><path d="M148.882 68.5566H141.156V63.9041C141.156 61.7348 142.857 60.0278 145.02 60.0278C147.183 60.0278 148.882 61.7348 148.882 63.9041V68.5566Z" fill="#2B2A29"/><path d="M154.019 67.7819C156.152 67.7819 157.881 66.0465 157.881 63.9056C157.881 61.7648 156.152 60.0294 154.019 60.0294C151.886 60.0294 150.157 61.7648 150.157 63.9056C150.157 66.0465 151.886 67.7819 154.019 67.7819Z" fill="#2B2A29"/><path d="M166.88 59.2532H159.156V68.5566H166.88V59.2532Z" fill="#2B2A29"/><path d="M94.886 68.286H87.1625V77.5894H94.886V68.286Z" fill="#2B2A29"/><path d="M109.024 76.8147C106.861 76.8147 105.16 75.1077 105.16 72.9369V68.286H112.885V72.9369C112.885 75.1077 111.185 76.8147 109.024 76.8147Z" fill="#2B2A29"/><path d="M127.022 76.8147C129.155 76.8147 130.884 75.0793 130.884 72.9384C130.884 70.7976 129.155 69.0622 127.022 69.0622C124.889 69.0622 123.16 70.7976 123.16 72.9384C123.16 75.0793 124.889 76.8147 127.022 76.8147Z" fill="#2B2A29"/><path d="M148.882 68.286H141.158V77.5894H148.882V68.286Z" fill="#2B2A29"/><path d="M163.018 76.8147C160.855 76.8147 159.156 75.1077 159.156 72.9369V68.286H166.881V72.9369C166.881 75.1077 165.18 76.8147 163.018 76.8147Z" fill="#2B2A29"/><path d="M91.0243 85.8475C88.8615 85.8475 87.1625 84.1421 87.1625 81.9713V77.3188H94.8876V81.9713C94.8876 84.1421 93.187 85.8475 91.0243 85.8475Z" fill="#2B2A29"/><path d="M148.882 77.3188H141.158V86.6222H148.882V77.3188Z" fill="#2B2A29"/><path d="M19.0307 94.8803C21.1635 94.8803 22.8925 93.1449 22.8925 91.0041C22.8925 88.8633 21.1635 87.1278 19.0307 87.1278C16.8979 87.1278 15.1689 88.8633 15.1689 91.0041C15.1689 93.1449 16.8979 94.8803 19.0307 94.8803Z" fill="#2B2A29"/><path d="M37.0287 94.8803C39.1615 94.8803 40.8904 93.1449 40.8904 91.0041C40.8904 88.8633 39.1615 87.1278 37.0287 87.1278C34.8959 87.1278 33.1669 88.8633 33.1669 91.0041C33.1669 93.1449 34.8959 94.8803 37.0287 94.8803Z" fill="#2B2A29"/><path d="M49.8911 95.6565H42.166V91.0041C42.166 88.8332 43.865 87.1278 46.0278 87.1278C48.1905 87.1278 49.8911 88.8332 49.8911 91.0041V95.6565Z" fill="#2B2A29"/><path d="M58.89 95.6565H51.1649V91.0041C51.1649 88.8332 52.8655 87.1278 55.0282 87.1278C57.191 87.1278 58.89 88.8332 58.89 91.0041V95.6565Z" fill="#2B2A29"/><path d="M64.0273 94.8803C66.1601 94.8803 67.8891 93.1449 67.8891 91.0041C67.8891 88.8633 66.1601 87.1278 64.0273 87.1278C61.8945 87.1278 60.1655 88.8633 60.1655 91.0041C60.1655 93.1449 61.8945 94.8803 64.0273 94.8803Z" fill="#2B2A29"/><path d="M73.0263 94.8803C75.1591 94.8803 76.8881 93.1449 76.8881 91.0041C76.8881 88.8633 75.1591 87.1278 73.0263 87.1278C70.8935 87.1278 69.1646 88.8633 69.1646 91.0041C69.1646 93.1449 70.8935 94.8803 73.0263 94.8803Z" fill="#2B2A29"/><path d="M118.023 94.8803C120.156 94.8803 121.885 93.1449 121.885 91.0041C121.885 88.8633 120.156 87.1278 118.023 87.1278C115.89 87.1278 114.161 88.8633 114.161 91.0041C114.161 93.1449 115.89 94.8803 118.023 94.8803Z" fill="#2B2A29"/><path d="M136.021 94.8803C138.154 94.8803 139.883 93.1449 139.883 91.0041C139.883 88.8633 138.154 87.1278 136.021 87.1278C133.888 87.1278 132.159 88.8633 132.159 91.0041C132.159 93.1449 133.888 94.8803 136.021 94.8803Z" fill="#2B2A29"/><path d="M148.882 86.3516H141.158V95.655H148.882V86.3516Z" fill="#2B2A29"/><path d="M154.019 94.8803C156.152 94.8803 157.881 93.1449 157.881 91.0041C157.881 88.8633 156.152 87.1278 154.019 87.1278C151.886 87.1278 150.157 88.8633 150.157 91.0041C150.157 93.1449 151.886 94.8803 154.019 94.8803Z" fill="#2B2A29"/><path d="M166.881 95.6565H159.156V91.0041C159.156 88.8332 160.855 87.1278 163.018 87.1278C165.18 87.1278 166.881 88.8332 166.881 91.0041V95.6565Z" fill="#2B2A29"/><path d="M181.016 94.8803C183.149 94.8803 184.878 93.1449 184.878 91.0041C184.878 88.8633 183.149 87.1278 181.016 87.1278C178.883 87.1278 177.154 88.8633 177.154 91.0041C177.154 93.1449 178.883 94.8803 181.016 94.8803Z" fill="#2B2A29"/><path d="M190.016 94.8803C192.149 94.8803 193.878 93.1449 193.878 91.0041C193.878 88.8633 192.149 87.1278 190.016 87.1278C187.883 87.1278 186.155 88.8633 186.155 91.0041C186.155 93.1449 187.883 94.8803 190.016 94.8803Z" fill="#2B2A29"/><path d="M199.015 94.8803C201.148 94.8803 202.877 93.1449 202.877 91.0041C202.877 88.8633 201.148 87.1278 199.015 87.1278C196.883 87.1278 195.154 88.8633 195.154 91.0041C195.154 93.1449 196.883 94.8803 199.015 94.8803Z" fill="#2B2A29"/><path d="M208.014 94.8803C210.147 94.8803 211.876 93.1449 211.876 91.0041C211.876 88.8633 210.147 87.1278 208.014 87.1278C205.882 87.1278 204.153 88.8633 204.153 91.0041C204.153 93.1449 205.882 94.8803 208.014 94.8803Z" fill="#2B2A29"/><path d="M217.013 94.8803C219.146 94.8803 220.875 93.1449 220.875 91.0041C220.875 88.8633 219.146 87.1278 217.013 87.1278C214.88 87.1278 213.151 88.8633 213.151 91.0041C213.151 93.1449 214.88 94.8803 217.013 94.8803Z" fill="#2B2A29"/><path d="M28.0298 103.913C30.1626 103.913 31.8915 102.178 31.8915 100.037C31.8915 97.8961 30.1626 96.1606 28.0298 96.1606C25.897 96.1606 24.168 97.8961 24.168 100.037C24.168 102.178 25.897 103.913 28.0298 103.913Z" fill="#2B2A29"/><path d="M49.8895 95.3844H42.166V104.688H49.8895V95.3844Z" fill="#2B2A29"/><path d="M55.0282 103.913C52.8655 103.913 51.1649 102.208 51.1649 100.037V95.3844H58.89V100.037C58.89 102.208 57.191 103.913 55.0282 103.913Z" fill="#2B2A29"/><path d="M82.0252 103.913C84.158 103.913 85.887 102.178 85.887 100.037C85.887 97.8961 84.158 96.1606 82.0252 96.1606C79.8924 96.1606 78.1635 97.8961 78.1635 100.037C78.1635 102.178 79.8924 103.913 82.0252 103.913Z" fill="#2B2A29"/><path d="M127.022 103.913C129.155 103.913 130.884 102.178 130.884 100.037C130.884 97.8961 129.155 96.1606 127.022 96.1606C124.889 96.1606 123.16 97.8961 123.16 100.037C123.16 102.178 124.889 103.913 127.022 103.913Z" fill="#2B2A29"/><path d="M148.882 95.3844H141.158V104.688H148.882V95.3844Z" fill="#2B2A29"/><path d="M163.018 103.913C160.855 103.913 159.156 102.208 159.156 100.037V95.3844H166.881V100.037C166.881 102.208 165.18 103.913 163.018 103.913Z" fill="#2B2A29"/><path d="M229.874 104.688H222.149V100.037C222.149 97.866 223.85 96.159 226.011 96.159C228.173 96.159 229.874 97.866 229.874 100.037V104.688Z" fill="#2B2A29"/><path d="M40.892 113.722H33.1669V109.071C33.1669 106.9 34.8675 105.193 37.0302 105.193C39.1914 105.193 40.892 106.9 40.892 109.071V113.722Z" fill="#2B2A29"/><path d="M49.8895 104.417H42.166V113.721H49.8895V104.417Z" fill="#2B2A29"/><path d="M67.8891 113.722H60.1639V109.071C60.1639 106.9 61.8645 105.193 64.0257 105.193C66.1884 105.193 67.8891 106.9 67.8891 109.071V113.722Z" fill="#2B2A29"/><path d="M73.0263 112.946C75.1591 112.946 76.8881 111.21 76.8881 109.07C76.8881 106.929 75.1591 105.193 73.0263 105.193C70.8935 105.193 69.1646 106.929 69.1646 109.07C69.1646 111.21 70.8935 112.946 73.0263 112.946Z" fill="#2B2A29"/><path d="M103.885 113.722H96.1599V109.071C96.1599 106.9 97.8605 105.193 100.023 105.193C102.186 105.193 103.885 106.9 103.885 109.071V113.722Z" fill="#2B2A29"/><path d="M109.022 112.946C111.155 112.946 112.884 111.21 112.884 109.07C112.884 106.929 111.155 105.193 109.022 105.193C106.889 105.193 105.16 106.929 105.16 109.07C105.16 111.21 106.889 112.946 109.022 112.946Z" fill="#2B2A29"/><path d="M148.882 104.417H141.158V113.721H148.882V104.417Z" fill="#2B2A29"/><path d="M157.881 113.722H150.155V109.071C150.155 106.9 151.856 105.193 154.019 105.193C156.18 105.193 157.881 106.9 157.881 109.071V113.722Z" fill="#2B2A29"/><path d="M172.017 112.946C174.149 112.946 175.878 111.21 175.878 109.07C175.878 106.929 174.149 105.193 172.017 105.193C169.884 105.193 168.155 106.929 168.155 109.07C168.155 111.21 169.884 112.946 172.017 112.946Z" fill="#2B2A29"/><path d="M208.014 112.946C210.147 112.946 211.876 111.21 211.876 109.07C211.876 106.929 210.147 105.193 208.014 105.193C205.882 105.193 204.153 106.929 204.153 109.07C204.153 111.21 205.882 112.946 208.014 112.946Z" fill="#2B2A29"/><path d="M226.012 112.946C223.851 112.946 222.151 111.239 222.151 109.07V104.417H229.876V109.07C229.876 111.239 228.175 112.946 226.012 112.946Z" fill="#2B2A29"/><path d="M238.875 113.722H231.15V109.071C231.15 106.9 232.849 105.193 235.011 105.193C237.174 105.193 238.875 106.9 238.875 109.071V113.722Z" fill="#2B2A29"/><path d="M19.0307 121.979C21.1635 121.979 22.8925 120.243 22.8925 118.102C22.8925 115.962 21.1635 114.226 19.0307 114.226C16.8979 114.226 15.1689 115.962 15.1689 118.102C15.1689 120.243 16.8979 121.979 19.0307 121.979Z" fill="#2B2A29"/><path d="M31.8915 122.755H24.168V118.102C24.168 115.932 25.867 114.226 28.0298 114.226C30.1925 114.226 31.8915 115.932 31.8915 118.102V122.755Z" fill="#2B2A29"/><path d="M37.0302 121.98C34.8675 121.98 33.1669 120.273 33.1669 118.102V113.452H40.892V118.102C40.892 120.273 39.1914 121.98 37.0302 121.98Z" fill="#2B2A29"/><path d="M46.0278 121.98C43.865 121.98 42.166 120.273 42.166 118.102V113.452H49.8911V118.102C49.8911 120.273 48.1905 121.98 46.0278 121.98Z" fill="#2B2A29"/><path d="M67.8891 113.452H60.1655V122.755H67.8891V113.452Z" fill="#2B2A29"/><path d="M85.8869 122.755H78.1619V118.102C78.1619 115.932 79.8625 114.226 82.0252 114.226C84.1879 114.226 85.8869 115.932 85.8869 118.102V122.755Z" fill="#2B2A29"/><path d="M100.023 121.98C97.8605 121.98 96.1599 120.273 96.1599 118.102V113.452H103.885V118.102C103.885 120.273 102.186 121.98 100.023 121.98Z" fill="#2B2A29"/><path d="M121.885 122.755H114.159V118.102C114.159 115.932 115.858 114.226 118.021 114.226C120.184 114.226 121.885 115.932 121.885 118.102V122.755Z" fill="#2B2A29"/><path d="M148.882 113.452H141.158V122.755H148.882V113.452Z" fill="#2B2A29"/><path d="M157.881 113.452H150.157V122.755H157.881V113.452Z" fill="#2B2A29"/><path d="M166.881 122.755H159.156V118.102C159.156 115.932 160.855 114.226 163.018 114.226C165.18 114.226 166.881 115.932 166.881 118.102V122.755Z" fill="#2B2A29"/><path d="M193.876 122.755H186.153V118.102C186.153 115.932 187.852 114.226 190.015 114.226C192.177 114.226 193.876 115.932 193.876 118.102V122.755Z" fill="#2B2A29"/><path d="M238.873 113.452H231.15V122.755H238.873V113.452Z" fill="#2B2A29"/><path d="M31.8915 122.484H24.168V131.788H31.8915V122.484Z" fill="#2B2A29"/><path d="M67.8891 122.484H60.1655V131.788H67.8891V122.484Z" fill="#2B2A29"/><path d="M73.0263 131.012C75.1591 131.012 76.8881 129.276 76.8881 127.135C76.8881 124.994 75.1591 123.259 73.0263 123.259C70.8935 123.259 69.1646 124.994 69.1646 127.135C69.1646 129.276 70.8935 131.012 73.0263 131.012Z" fill="#2B2A29"/><path d="M85.887 122.484H78.1635V131.788H85.887V122.484Z" fill="#2B2A29"/><path d="M109.022 131.012C111.155 131.012 112.884 129.276 112.884 127.135C112.884 124.994 111.155 123.259 109.022 123.259C106.889 123.259 105.16 124.994 105.16 127.135C105.16 129.276 106.889 131.012 109.022 131.012Z" fill="#2B2A29"/><path d="M118.021 131.012C115.858 131.012 114.159 129.306 114.159 127.135V122.483H121.885V127.135C121.885 129.306 120.184 131.012 118.021 131.012Z" fill="#2B2A29"/><path d="M127.022 131.012C129.155 131.012 130.884 129.276 130.884 127.135C130.884 124.994 129.155 123.259 127.022 123.259C124.889 123.259 123.16 124.994 123.16 127.135C123.16 129.276 124.889 131.012 127.022 131.012Z" fill="#2B2A29"/><path d="M136.021 131.012C138.154 131.012 139.883 129.276 139.883 127.135C139.883 124.994 138.154 123.259 136.021 123.259C133.888 123.259 132.159 124.994 132.159 127.135C132.159 129.276 133.888 131.012 136.021 131.012Z" fill="#2B2A29"/><path d="M148.882 122.484H141.158V131.788H148.882V122.484Z" fill="#2B2A29"/><path d="M154.019 131.012C151.856 131.012 150.155 129.306 150.155 127.135V122.483H157.881V127.135C157.881 129.306 156.18 131.012 154.019 131.012Z" fill="#2B2A29"/><path d="M166.88 122.484H159.156V131.788H166.88V122.484Z" fill="#2B2A29"/><path d="M172.017 131.012C174.149 131.012 175.878 129.276 175.878 127.135C175.878 124.994 174.149 123.259 172.017 123.259C169.884 123.259 168.155 124.994 168.155 127.135C168.155 129.276 169.884 131.012 172.017 131.012Z" fill="#2B2A29"/><path d="M181.016 131.012C183.149 131.012 184.878 129.276 184.878 127.135C184.878 124.994 183.149 123.259 181.016 123.259C178.883 123.259 177.154 124.994 177.154 127.135C177.154 129.276 178.883 131.012 181.016 131.012Z" fill="#2B2A29"/><path d="M193.876 122.484H186.153V131.788H193.876V122.484Z" fill="#2B2A29"/><path d="M199.015 131.012C201.148 131.012 202.877 129.276 202.877 127.135C202.877 124.994 201.148 123.259 199.015 123.259C196.883 123.259 195.154 124.994 195.154 127.135C195.154 129.276 196.883 131.012 199.015 131.012Z" fill="#2B2A29"/><path d="M217.013 131.012C219.146 131.012 220.875 129.276 220.875 127.135C220.875 124.994 219.146 123.259 217.013 123.259C214.88 123.259 213.151 124.994 213.151 127.135C213.151 129.276 214.88 131.012 217.013 131.012Z" fill="#2B2A29"/><path d="M229.874 131.788H222.149V127.137C222.149 124.966 223.85 123.259 226.011 123.259C228.173 123.259 229.874 124.966 229.874 127.137V131.788Z" fill="#2B2A29"/><path d="M235.011 131.012C232.849 131.012 231.15 129.306 231.15 127.135V122.483H238.875V127.135C238.875 129.306 237.174 131.012 235.011 131.012Z" fill="#2B2A29"/><path d="M22.894 140.821H15.1689V136.168C15.1689 133.999 16.868 132.292 19.0307 132.292C21.1934 132.292 22.894 133.999 22.894 136.168V140.821Z" fill="#2B2A29"/><path d="M28.0298 140.046C25.867 140.046 24.168 138.339 24.168 136.168V131.517H31.8915V136.168C31.8915 138.339 30.1925 140.046 28.0298 140.046Z" fill="#2B2A29"/><path d="M40.892 140.821H33.1669V136.168C33.1669 133.999 34.8675 132.292 37.0302 132.292C39.1914 132.292 40.892 133.999 40.892 136.168V140.821Z" fill="#2B2A29"/><path d="M58.89 140.821H51.1649V136.168C51.1649 133.999 52.8655 132.292 55.0282 132.292C57.191 132.292 58.89 133.999 58.89 136.168V140.821Z" fill="#2B2A29"/><path d="M67.8891 131.517H60.1655V140.821H67.8891V131.517Z" fill="#2B2A29"/><path d="M85.887 131.517H78.1635V140.821H85.887V131.517Z" fill="#2B2A29"/><path d="M91.0243 140.046C93.1571 140.046 94.886 138.31 94.886 136.17C94.886 134.029 93.1571 132.293 91.0243 132.293C88.8915 132.293 87.1625 134.029 87.1625 136.17C87.1625 138.31 88.8915 140.046 91.0243 140.046Z" fill="#2B2A29"/><path d="M145.02 140.046C142.857 140.046 141.156 138.339 141.156 136.168V131.517H148.882V136.168C148.882 138.339 147.183 140.046 145.02 140.046Z" fill="#2B2A29"/><path d="M166.88 131.517H159.156V140.821H166.88V131.517Z" fill="#2B2A29"/><path d="M193.876 131.517H186.153V140.821H193.876V131.517Z" fill="#2B2A29"/><path d="M211.876 140.821H204.151V136.168C204.151 133.999 205.85 132.292 208.013 132.292C210.176 132.292 211.876 133.999 211.876 136.168V140.821Z" fill="#2B2A29"/><path d="M229.874 131.517H222.151V140.821H229.874V131.517Z" fill="#2B2A29"/><path d="M22.8925 140.55H15.1689V149.853H22.8925V140.55Z" fill="#2B2A29"/><path d="M40.8904 140.55H33.1669V149.853H40.8904V140.55Z" fill="#2B2A29"/><path d="M46.0292 149.079C48.162 149.079 49.891 147.343 49.891 145.202C49.891 143.062 48.162 141.326 46.0292 141.326C43.8964 141.326 42.1675 143.062 42.1675 145.202C42.1675 147.343 43.8964 149.079 46.0292 149.079Z" fill="#2B2A29"/><path d="M58.8884 140.55H51.1649V149.853H58.8884V140.55Z" fill="#2B2A29"/><path d="M64.0257 149.077C61.8645 149.077 60.1639 147.372 60.1639 145.201V140.548H67.8891V145.201C67.8891 147.372 66.1884 149.077 64.0257 149.077Z" fill="#2B2A29"/><path d="M73.0263 149.079C75.1591 149.079 76.8881 147.343 76.8881 145.202C76.8881 143.062 75.1591 141.326 73.0263 141.326C70.8935 141.326 69.1646 143.062 69.1646 145.202C69.1646 147.343 70.8935 149.079 73.0263 149.079Z" fill="#2B2A29"/><path d="M85.887 140.55H78.1635V149.853H85.887V140.55Z" fill="#2B2A29"/><path d="M103.885 149.855H96.1599V145.202C96.1599 143.032 97.8605 141.326 100.023 141.326C102.186 141.326 103.885 143.032 103.885 145.202V149.855Z" fill="#2B2A29"/><path d="M112.885 149.855H105.16V145.202C105.16 143.032 106.861 141.326 109.024 141.326C111.185 141.326 112.885 143.032 112.885 145.202V149.855Z" fill="#2B2A29"/><path d="M121.885 149.855H114.159V145.202C114.159 143.032 115.858 141.326 118.021 141.326C120.184 141.326 121.885 143.032 121.885 145.202V149.855Z" fill="#2B2A29"/><path d="M127.022 149.079C129.155 149.079 130.884 147.343 130.884 145.202C130.884 143.062 129.155 141.326 127.022 141.326C124.889 141.326 123.16 143.062 123.16 145.202C123.16 147.343 124.889 149.079 127.022 149.079Z" fill="#2B2A29"/><path d="M157.881 149.855H150.155V145.202C150.155 143.032 151.856 141.326 154.019 141.326C156.18 141.326 157.881 143.032 157.881 145.202V149.855Z" fill="#2B2A29"/><path d="M163.018 149.077C160.855 149.077 159.156 147.372 159.156 145.201V140.548H166.881V145.201C166.881 147.372 165.18 149.077 163.018 149.077Z" fill="#2B2A29"/><path d="M175.879 149.855H168.153V145.202C168.153 143.032 169.854 141.326 172.017 141.326C174.179 141.326 175.879 143.032 175.879 145.202V149.855Z" fill="#2B2A29"/><path d="M193.876 140.55H186.153V149.853H193.876V140.55Z" fill="#2B2A29"/><path d="M202.877 149.855H195.152V145.202C195.152 143.032 196.853 141.326 199.015 141.326C201.176 141.326 202.877 143.032 202.877 145.202V149.855Z" fill="#2B2A29"/><path d="M208.014 149.077C205.852 149.077 204.153 147.372 204.153 145.201V140.548H211.878V145.201C211.878 147.372 210.177 149.077 208.014 149.077Z" fill="#2B2A29"/><path d="M226.012 149.077C223.851 149.077 222.151 147.372 222.151 145.201V140.548H229.876V145.201C229.876 147.372 228.175 149.077 226.012 149.077Z" fill="#2B2A29"/><path d="M238.875 149.855H231.15V145.202C231.15 143.032 232.849 141.326 235.011 141.326C237.174 141.326 238.875 143.032 238.875 145.202V149.855Z" fill="#2B2A29"/><path d="M22.8925 149.583H15.1689V158.886H22.8925V149.583Z" fill="#2B2A29"/><path d="M40.8904 149.583H33.1669V158.886H40.8904V149.583Z" fill="#2B2A29"/><path d="M58.8884 149.583H51.1649V158.886H58.8884V149.583Z" fill="#2B2A29"/><path d="M85.887 149.583H78.1635V158.886H85.887V149.583Z" fill="#2B2A29"/><path d="M94.8876 158.886H87.1625V154.235C87.1625 152.064 88.8615 150.357 91.0243 150.357C93.187 150.357 94.8876 152.064 94.8876 154.235V158.886Z" fill="#2B2A29"/><path d="M100.023 158.112C97.8605 158.112 96.1599 156.405 96.1599 154.235V149.583H103.885V154.235C103.885 156.405 102.186 158.112 100.023 158.112Z" fill="#2B2A29"/><path d="M112.884 149.583H105.16V158.886H112.884V149.583Z" fill="#2B2A29"/><path d="M121.883 149.583H114.159V158.886H121.883V149.583Z" fill="#2B2A29"/><path d="M154.019 158.112C151.856 158.112 150.155 156.405 150.155 154.235V149.583H157.881V154.235C157.881 156.405 156.18 158.112 154.019 158.112Z" fill="#2B2A29"/><path d="M175.878 149.583H168.155V158.886H175.878V149.583Z" fill="#2B2A29"/><path d="M184.879 158.886H177.154V154.235C177.154 152.064 178.855 150.357 181.016 150.357C183.178 150.357 184.879 152.064 184.879 154.235V158.886Z" fill="#2B2A29"/><path d="M193.876 149.583H186.153V158.886H193.876V149.583Z" fill="#2B2A29"/><path d="M202.877 149.583H195.154V158.886H202.877V149.583Z" fill="#2B2A29"/><path d="M235.011 158.112C232.849 158.112 231.15 156.405 231.15 154.235V149.583H238.875V154.235C238.875 156.405 237.174 158.112 235.011 158.112Z" fill="#2B2A29"/><path d="M19.0307 167.144C16.868 167.144 15.1689 165.437 15.1689 163.267V158.616H22.894V163.267C22.894 165.437 21.1934 167.144 19.0307 167.144Z" fill="#2B2A29"/><path d="M37.0302 167.144C34.8675 167.144 33.1669 165.437 33.1669 163.267V158.616H40.892V163.267C40.892 165.437 39.1914 167.144 37.0302 167.144Z" fill="#2B2A29"/><path d="M55.0282 167.144C52.8655 167.144 51.1649 165.437 51.1649 163.267V158.616H58.89V163.267C58.89 165.437 57.191 167.144 55.0282 167.144Z" fill="#2B2A29"/><path d="M64.0273 167.144C66.1601 167.144 67.8891 165.409 67.8891 163.268C67.8891 161.127 66.1601 159.392 64.0273 159.392C61.8945 159.392 60.1655 161.127 60.1655 163.268C60.1655 165.409 61.8945 167.144 64.0273 167.144Z" fill="#2B2A29"/><path d="M73.0263 167.144C75.1591 167.144 76.8881 165.409 76.8881 163.268C76.8881 161.127 75.1591 159.392 73.0263 159.392C70.8935 159.392 69.1646 161.127 69.1646 163.268C69.1646 165.409 70.8935 167.144 73.0263 167.144Z" fill="#2B2A29"/><path d="M82.0252 167.144C79.8625 167.144 78.1619 165.437 78.1619 163.267V158.616H85.8869V163.267C85.8869 165.437 84.1879 167.144 82.0252 167.144Z" fill="#2B2A29"/><path d="M94.886 158.616H87.1625V167.919H94.886V158.616Z" fill="#2B2A29"/><path d="M112.884 158.616H105.16V167.919H112.884V158.616Z" fill="#2B2A29"/><path d="M118.021 167.144C115.858 167.144 114.159 165.437 114.159 163.267V158.616H121.885V163.267C121.885 165.437 120.184 167.144 118.021 167.144Z" fill="#2B2A29"/><path d="M136.021 167.144C138.154 167.144 139.883 165.409 139.883 163.268C139.883 161.127 138.154 159.392 136.021 159.392C133.888 159.392 132.159 161.127 132.159 163.268C132.159 165.409 133.888 167.144 136.021 167.144Z" fill="#2B2A29"/><path d="M166.881 167.921H159.156V163.268C159.156 161.097 160.855 159.392 163.018 159.392C165.18 159.392 166.881 161.097 166.881 163.268V167.921Z" fill="#2B2A29"/><path d="M172.018 167.144C169.856 167.144 168.155 165.437 168.155 163.267V158.616H175.88V163.267C175.88 165.437 174.181 167.144 172.018 167.144Z" fill="#2B2A29"/><path d="M181.016 167.144C178.855 167.144 177.154 165.437 177.154 163.267V158.616H184.879V163.267C184.879 165.437 183.178 167.144 181.016 167.144Z" fill="#2B2A29"/><path d="M190.016 167.144C187.854 167.144 186.155 165.437 186.155 163.267V158.616H193.878V163.267C193.878 165.437 192.179 167.144 190.016 167.144Z" fill="#2B2A29"/><path d="M202.877 158.616H195.154V167.919H202.877V158.616Z" fill="#2B2A29"/><path d="M217.013 167.144C219.146 167.144 220.875 165.409 220.875 163.268C220.875 161.127 219.146 159.392 217.013 159.392C214.88 159.392 213.151 161.127 213.151 163.268C213.151 165.409 214.88 167.144 217.013 167.144Z" fill="#2B2A29"/><path d="M91.0243 176.177C88.8615 176.177 87.1625 174.472 87.1625 172.301V167.648H94.8876V172.301C94.8876 174.472 93.187 176.177 91.0243 176.177Z" fill="#2B2A29"/><path d="M103.885 176.952H96.1599V172.301C96.1599 170.13 97.8605 168.423 100.023 168.423C102.186 168.423 103.885 170.13 103.885 172.301V176.952Z" fill="#2B2A29"/><path d="M112.884 167.648H105.16V176.952H112.884V167.648Z" fill="#2B2A29"/><path d="M127.022 176.177C129.155 176.177 130.884 174.442 130.884 172.301C130.884 170.16 129.155 168.425 127.022 168.425C124.889 168.425 123.16 170.16 123.16 172.301C123.16 174.442 124.889 176.177 127.022 176.177Z" fill="#2B2A29"/><path d="M145.02 176.177C147.153 176.177 148.882 174.442 148.882 172.301C148.882 170.16 147.153 168.425 145.02 168.425C142.887 168.425 141.158 170.16 141.158 172.301C141.158 174.442 142.887 176.177 145.02 176.177Z" fill="#2B2A29"/><path d="M154.019 176.177C156.152 176.177 157.881 174.442 157.881 172.301C157.881 170.16 156.152 168.425 154.019 168.425C151.886 168.425 150.157 170.16 150.157 172.301C150.157 174.442 151.886 176.177 154.019 176.177Z" fill="#2B2A29"/><path d="M166.88 167.648H159.156V176.952H166.88V167.648Z" fill="#2B2A29"/><path d="M202.877 167.648H195.154V176.952H202.877V167.648Z" fill="#2B2A29"/><path d="M208.014 176.177C210.147 176.177 211.876 174.442 211.876 172.301C211.876 170.16 210.147 168.425 208.014 168.425C205.882 168.425 204.153 170.16 204.153 172.301C204.153 174.442 205.882 176.177 208.014 176.177Z" fill="#2B2A29"/><path d="M100.023 185.21C97.8605 185.21 96.1599 183.503 96.1599 181.332V176.681H103.885V181.332C103.885 183.503 102.186 185.21 100.023 185.21Z" fill="#2B2A29"/><path d="M109.024 185.21C106.861 185.21 105.16 183.503 105.16 181.332V176.681H112.885V181.332C112.885 183.503 111.185 185.21 109.024 185.21Z" fill="#2B2A29"/><path d="M136.021 185.21C138.154 185.21 139.883 183.475 139.883 181.334C139.883 179.193 138.154 177.457 136.021 177.457C133.888 177.457 132.159 179.193 132.159 181.334C132.159 183.475 133.888 185.21 136.021 185.21Z" fill="#2B2A29"/><path d="M166.88 176.683H159.156V185.986H166.88V176.683Z" fill="#2B2A29"/><path d="M181.016 185.21C183.149 185.21 184.878 183.475 184.878 181.334C184.878 179.193 183.149 177.457 181.016 177.457C178.883 177.457 177.154 179.193 177.154 181.334C177.154 183.475 178.883 185.21 181.016 185.21Z" fill="#2B2A29"/><path d="M202.877 176.683H195.154V185.986H202.877V176.683Z" fill="#2B2A29"/><path d="M217.013 185.21C219.146 185.21 220.875 183.475 220.875 181.334C220.875 179.193 219.146 177.457 217.013 177.457C214.88 177.457 213.151 179.193 213.151 181.334C213.151 183.475 214.88 185.21 217.013 185.21Z" fill="#2B2A29"/><path d="M229.874 185.986H222.149V181.334C222.149 179.164 223.85 177.457 226.011 177.457C228.173 177.457 229.874 179.164 229.874 181.334V185.986Z" fill="#2B2A29"/><path d="M235.011 185.21C237.144 185.21 238.873 183.475 238.873 181.334C238.873 179.193 237.144 177.457 235.011 177.457C232.879 177.457 231.15 179.193 231.15 181.334C231.15 183.475 232.879 185.21 235.011 185.21Z" fill="#2B2A29"/><path d="M94.8876 195.019H87.1625V190.366C87.1625 188.196 88.8615 186.49 91.0243 186.49C93.187 186.49 94.8876 188.196 94.8876 190.366V195.019Z" fill="#2B2A29"/><path d="M130.884 195.019H123.158V190.366C123.158 188.196 124.859 186.49 127.022 186.49C129.184 186.49 130.884 188.196 130.884 190.366V195.019Z" fill="#2B2A29"/><path d="M166.88 185.716H159.156V195.019H166.88V185.716Z" fill="#2B2A29"/><path d="M202.877 185.716H195.154V195.019H202.877V185.716Z" fill="#2B2A29"/><path d="M208.014 194.243C210.147 194.243 211.876 192.507 211.876 190.366C211.876 188.226 210.147 186.49 208.014 186.49C205.882 186.49 204.153 188.226 204.153 190.366C204.153 192.507 205.882 194.243 208.014 194.243Z" fill="#2B2A29"/><path d="M229.874 185.716H222.151V195.019H229.874V185.716Z" fill="#2B2A29"/><path d="M94.886 194.748H87.1625V204.052H94.886V194.748Z" fill="#2B2A29"/><path d="M127.022 203.276C124.859 203.276 123.158 201.57 123.158 199.399V194.747H130.884V199.399C130.884 201.57 129.184 203.276 127.022 203.276Z" fill="#2B2A29"/><path d="M136.021 203.276C138.154 203.276 139.883 201.54 139.883 199.399C139.883 197.258 138.154 195.523 136.021 195.523C133.888 195.523 132.159 197.258 132.159 199.399C132.159 201.54 133.888 203.276 136.021 203.276Z" fill="#2B2A29"/><path d="M154.019 203.276C156.152 203.276 157.881 201.54 157.881 199.399C157.881 197.258 156.152 195.523 154.019 195.523C151.886 195.523 150.157 197.258 150.157 199.399C150.157 201.54 151.886 203.276 154.019 203.276Z" fill="#2B2A29"/><path d="M166.88 194.748H159.156V204.052H166.88V194.748Z" fill="#2B2A29"/><path d="M175.879 204.052H168.153V199.401C168.153 197.23 169.854 195.523 172.017 195.523C174.179 195.523 175.879 197.23 175.879 199.401V204.052Z" fill="#2B2A29"/><path d="M184.879 204.052H177.154V199.401C177.154 197.23 178.855 195.523 181.016 195.523C183.178 195.523 184.879 197.23 184.879 199.401V204.052Z" fill="#2B2A29"/><path d="M190.016 203.276C192.149 203.276 193.878 201.54 193.878 199.399C193.878 197.258 192.149 195.523 190.016 195.523C187.883 195.523 186.155 197.258 186.155 199.399C186.155 201.54 187.883 203.276 190.016 203.276Z" fill="#2B2A29"/><path d="M202.877 194.748H195.154V204.052H202.877V194.748Z" fill="#2B2A29"/><path d="M220.875 204.052H213.15V199.401C213.15 197.23 214.85 195.523 217.013 195.523C219.176 195.523 220.875 197.23 220.875 199.401V204.052Z" fill="#2B2A29"/><path d="M229.874 194.748H222.151V204.052H229.874V194.748Z" fill="#2B2A29"/><path d="M238.875 204.052H231.15V199.401C231.15 197.23 232.849 195.523 235.011 195.523C237.174 195.523 238.875 197.23 238.875 199.401V204.052Z" fill="#2B2A29"/><path d="M94.886 203.781H87.1625V213.085H94.886V203.781Z" fill="#2B2A29"/><path d="M100.023 212.31C102.156 212.31 103.885 210.574 103.885 208.434C103.885 206.293 102.156 204.557 100.023 204.557C97.8904 204.557 96.1615 206.293 96.1615 208.434C96.1615 210.574 97.8904 212.31 100.023 212.31Z" fill="#2B2A29"/><path d="M148.882 213.085H141.156V208.432C141.156 206.261 142.857 204.556 145.02 204.556C147.183 204.556 148.882 206.261 148.882 208.432V213.085Z" fill="#2B2A29"/><path d="M166.88 203.781H159.156V213.085H166.88V203.781Z" fill="#2B2A29"/><path d="M172.018 212.31C169.856 212.31 168.155 210.603 168.155 208.432V203.781H175.88V208.432C175.88 210.603 174.181 212.31 172.018 212.31Z" fill="#2B2A29"/><path d="M181.016 212.31C178.855 212.31 177.154 210.603 177.154 208.432V203.781H184.879V208.432C184.879 210.603 183.178 212.31 181.016 212.31Z" fill="#2B2A29"/><path d="M199.015 212.31C196.853 212.31 195.152 210.603 195.152 208.432V203.781H202.877V208.432C202.877 210.603 201.178 212.31 199.015 212.31Z" fill="#2B2A29"/><path d="M211.876 213.085H204.151V208.432C204.151 206.261 205.85 204.556 208.013 204.556C210.176 204.556 211.876 206.261 211.876 208.432V213.085Z" fill="#2B2A29"/><path d="M220.875 203.781H213.151V213.085H220.875V203.781Z" fill="#2B2A29"/><path d="M226.012 212.31C223.851 212.31 222.151 210.603 222.151 208.432V203.781H229.876V208.432C229.876 210.603 228.175 212.31 226.012 212.31Z" fill="#2B2A29"/><path d="M238.873 203.781H231.15V213.085H238.873V203.781Z" fill="#2B2A29"/><path d="M91.0243 221.343C88.8615 221.343 87.1625 219.637 87.1625 217.466V212.814H94.8876V217.466C94.8876 219.637 93.187 221.343 91.0243 221.343Z" fill="#2B2A29"/><path d="M109.022 221.343C111.155 221.343 112.884 219.607 112.884 217.466C112.884 215.326 111.155 213.59 109.022 213.59C106.889 213.59 105.16 215.326 105.16 217.466C105.16 219.607 106.889 221.343 109.022 221.343Z" fill="#2B2A29"/><path d="M121.885 222.117H114.159V217.466C114.159 215.296 115.858 213.589 118.021 213.589C120.184 213.589 121.885 215.296 121.885 217.466V222.117Z" fill="#2B2A29"/><path d="M127.022 221.343C129.155 221.343 130.884 219.607 130.884 217.466C130.884 215.326 129.155 213.59 127.022 213.59C124.889 213.59 123.16 215.326 123.16 217.466C123.16 219.607 124.889 221.343 127.022 221.343Z" fill="#2B2A29"/><path d="M145.02 221.343C142.857 221.343 141.156 219.637 141.156 217.466V212.814H148.882V217.466C148.882 219.637 147.183 221.343 145.02 221.343Z" fill="#2B2A29"/><path d="M166.88 212.814H159.156V222.117H166.88V212.814Z" fill="#2B2A29"/><path d="M211.876 212.814H204.153V222.117H211.876V212.814Z" fill="#2B2A29"/><path d="M217.013 221.343C214.85 221.343 213.15 219.637 213.15 217.466V212.814H220.875V217.466C220.875 219.637 219.176 221.343 217.013 221.343Z" fill="#2B2A29"/><path d="M238.873 212.814H231.15V222.117H238.873V212.814Z" fill="#2B2A29"/><path d="M100.023 230.376C102.156 230.376 103.885 228.64 103.885 226.499C103.885 224.358 102.156 222.623 100.023 222.623C97.8904 222.623 96.1615 224.358 96.1615 226.499C96.1615 228.64 97.8904 230.376 100.023 230.376Z" fill="#2B2A29"/><path d="M121.883 221.847H114.159V231.15H121.883V221.847Z" fill="#2B2A29"/><path d="M157.881 231.15H150.155V226.499C150.155 224.328 151.856 222.621 154.019 222.621C156.18 222.621 157.881 224.328 157.881 226.499V231.15Z" fill="#2B2A29"/><path d="M163.018 230.376C160.855 230.376 159.156 228.669 159.156 226.499V221.847H166.881V226.499C166.881 228.669 165.18 230.376 163.018 230.376Z" fill="#2B2A29"/><path d="M175.879 231.15H168.153V226.499C168.153 224.328 169.854 222.621 172.017 222.621C174.179 222.621 175.879 224.328 175.879 226.499V231.15Z" fill="#2B2A29"/><path d="M184.879 231.15H177.154V226.499C177.154 224.328 178.855 222.621 181.016 222.621C183.178 222.621 184.879 224.328 184.879 226.499V231.15Z" fill="#2B2A29"/><path d="M193.876 231.15H186.153V226.499C186.153 224.328 187.852 222.621 190.015 222.621C192.177 222.621 193.876 224.328 193.876 226.499V231.15Z" fill="#2B2A29"/><path d="M202.877 231.15H195.152V226.499C195.152 224.328 196.853 222.621 199.015 222.621C201.176 222.621 202.877 224.328 202.877 226.499V231.15Z" fill="#2B2A29"/><path d="M211.876 221.847H204.153V231.15H211.876V221.847Z" fill="#2B2A29"/><path d="M238.873 221.847H231.15V231.15H238.873V221.847Z" fill="#2B2A29"/><path d="M91.0243 239.408C93.1571 239.408 94.886 237.673 94.886 235.532C94.886 233.391 93.1571 231.656 91.0243 231.656C88.8915 231.656 87.1625 233.391 87.1625 235.532C87.1625 237.673 88.8915 239.408 91.0243 239.408Z" fill="#2B2A29"/><path d="M118.021 239.41C115.858 239.41 114.159 237.703 114.159 235.532V230.881H121.885V235.532C121.885 237.703 120.184 239.41 118.021 239.41Z" fill="#2B2A29"/><path d="M127.022 239.408C129.155 239.408 130.884 237.673 130.884 235.532C130.884 233.391 129.155 231.656 127.022 231.656C124.889 231.656 123.16 233.391 123.16 235.532C123.16 237.673 124.889 239.408 127.022 239.408Z" fill="#2B2A29"/><path d="M154.019 239.41C151.856 239.41 150.155 237.703 150.155 235.532V230.881H157.881V235.532C157.881 237.703 156.18 239.41 154.019 239.41Z" fill="#2B2A29"/><path d="M172.018 239.41C169.856 239.41 168.155 237.703 168.155 235.532V230.881H175.88V235.532C175.88 237.703 174.181 239.41 172.018 239.41Z" fill="#2B2A29"/><path d="M181.016 239.41C178.855 239.41 177.154 237.703 177.154 235.532V230.881H184.879V235.532C184.879 237.703 183.178 239.41 181.016 239.41Z" fill="#2B2A29"/><path d="M190.016 239.41C187.854 239.41 186.155 237.703 186.155 235.532V230.881H193.878V235.532C193.878 237.703 192.179 239.41 190.016 239.41Z" fill="#2B2A29"/><path d="M199.015 239.41C196.853 239.41 195.152 237.703 195.152 235.532V230.881H202.877V235.532C202.877 237.703 201.178 239.41 199.015 239.41Z" fill="#2B2A29"/><path d="M208.014 239.41C205.852 239.41 204.153 237.703 204.153 235.532V230.881H211.878V235.532C211.878 237.703 210.177 239.41 208.014 239.41Z" fill="#2B2A29"/><path d="M217.013 239.408C219.146 239.408 220.875 237.673 220.875 235.532C220.875 233.391 219.146 231.656 217.013 231.656C214.88 231.656 213.151 233.391 213.151 235.532C213.151 237.673 214.88 239.408 217.013 239.408Z" fill="#2B2A29"/><path d="M226.012 239.408C228.145 239.408 229.874 237.673 229.874 235.532C229.874 233.391 228.145 231.656 226.012 231.656C223.879 231.656 222.151 233.391 222.151 235.532C222.151 237.673 223.879 239.408 226.012 239.408Z" fill="#2B2A29"/><path d="M235.011 239.41C232.849 239.41 231.15 237.703 231.15 235.532V230.881H238.875V235.532C238.875 237.703 237.174 239.41 235.011 239.41Z" fill="#2B2A29"/><path d="M14.3972 14.0876V77.3188H77.3917V14.0876H14.3972ZM68.3912 68.286H23.3947V23.1189H68.3912V68.286Z" fill="#2B2A29"/><path d="M176.382 14.0876V77.3188H239.377V14.0876H176.382ZM230.378 68.286H185.38V23.1189H230.378V68.286Z" fill="#2B2A29"/><path d="M14.3972 176.683V239.914H77.3917V176.683H14.3972ZM68.3912 230.881H23.3947V185.716H68.3912V230.881Z" fill="#2B2A29"/><path d="M59.3921 32.1548H32.3951V59.2532H59.3921V32.1548Z" fill="#2B2A29"/><path d="M221.377 32.1548H194.38V59.2532H221.377V32.1548Z" fill="#2B2A29"/><path d="M59.3921 194.748H32.3951V221.847H59.3921V194.748Z" fill="#2B2A29"/><path clip-rule="evenodd" d="M97.6556 97.9124H156.117V156.592H97.6556V97.9124Z" stroke="#fff" stroke-width="2" stroke-miterlimit="22.926" stroke-linecap="round" stroke-linejoin="round"/><path fill-rule="evenodd" clip-rule="evenodd" d="M97.6556 97.9124H156.117V156.592H97.6556V97.9124Z" fill="#3C3CE9"/><path fill-rule="evenodd" clip-rule="evenodd" d="M139.149 144.545C138.978 144.545 138.806 144.487 138.69 144.428C138.405 144.312 136.605 142.831 136.29 142.599L130.23 137.891C129.657 137.455 128.715 136.641 128.202 136.292C128.029 136.38 125.657 138.616 125.284 138.965C124.884 139.315 124.512 139.721 124.113 140.041C124.027 140.098 123.998 140.157 123.913 140.244L121.94 142.047C121.94 141.785 122.655 137.397 122.682 137.165C122.826 136.381 122.941 135.508 123.055 134.724C123.228 133.648 123.055 133.736 123.627 133.184L125.058 131.817C125.686 131.179 126.573 130.422 127.2 129.782C127.344 129.637 127.43 129.58 127.573 129.434C127.716 129.288 127.773 129.23 127.917 129.113L128.802 128.242C129.232 127.836 129.688 127.458 130.089 127.052L130.802 126.354C131.261 125.889 131.774 125.482 132.231 124.988L133.49 123.797C133.576 123.71 133.605 123.71 133.69 123.622C133.833 123.506 133.92 123.39 134.034 123.273C134.52 122.808 135.033 122.373 135.492 121.908C135.95 121.442 136.463 121.036 136.922 120.541L139.437 118.158C139.551 118.042 139.665 117.897 139.809 117.809C140.067 117.605 140.325 117.373 140.494 117.113C140.637 116.909 140.665 116.879 140.637 116.589C140.466 115.601 138.752 116.966 138.208 117.285L135.349 119.087C135.033 119.291 134.721 119.466 134.405 119.669L133.462 120.28C133.119 120.482 132.835 120.686 132.492 120.889C130.89 121.877 129.348 122.894 127.746 123.882C127.431 124.086 127.117 124.261 126.803 124.465L122.059 127.458C121.886 127.547 121.743 127.663 121.572 127.778C121.399 127.894 121.258 127.983 121.085 128.069C120.912 128.187 120.769 128.244 120.628 128.361L118.397 129.784C118.34 129.813 118.34 129.843 118.254 129.872C118.111 129.959 117.853 129.813 117.712 129.756L109.678 126.995C109.278 126.849 108.192 126.441 107.905 126.413C107.992 126.296 108.021 126.325 108.163 126.266L112.651 124.349C114.252 123.683 115.795 122.954 117.423 122.316C117.625 122.229 117.796 122.17 117.997 122.055L120.969 120.776C121.171 120.688 121.372 120.601 121.57 120.513L130.489 116.677C130.919 116.502 131.289 116.357 131.689 116.182C132.834 115.658 134.091 115.165 135.263 114.642L143.61 111.097C144.209 110.834 145.496 110.37 146.01 110.079C146.01 110.603 145.553 112.666 145.439 113.363C145.123 115.165 144.753 117.025 144.38 118.797C143.667 122.401 143.008 126.033 142.295 129.635C142.152 130.362 142.008 131.089 141.865 131.816C141.578 133.269 141.292 134.693 141.036 136.174C140.722 137.918 140.266 139.894 139.98 141.608C139.923 141.928 139.521 144.165 139.436 144.31C139.379 144.426 139.206 144.572 139.063 144.572L139.149 144.544V144.545ZM104.017 126.092C104.017 126.933 104.133 127.486 104.561 128.125C104.848 128.561 105.247 128.909 105.676 129.199C106.505 129.781 107.821 130.129 108.791 130.478C109.335 130.653 109.877 130.857 110.422 131.032L113.708 132.136C113.938 132.222 115.167 132.689 115.367 132.689C115.367 132.864 116.339 136.03 116.481 136.496C116.683 137.134 116.854 137.775 117.054 138.413C117.57 139.983 117.969 141.55 118.483 143.12C118.999 144.691 119.685 146.288 121.541 146.288C121.971 146.288 122.456 146.143 122.77 145.997C122.913 145.938 123.143 145.822 123.257 145.705L124.83 144.252C125.087 143.99 125.373 143.786 125.629 143.497C125.715 143.409 125.715 143.409 125.829 143.322L126.23 142.973C126.316 142.916 126.345 142.857 126.432 142.77L126.832 142.421C126.976 142.276 127.09 142.217 127.233 142.071C127.376 141.926 127.49 141.867 127.633 141.722L128.234 141.17C128.32 141.111 128.377 141.052 128.434 140.995C128.55 141.025 128.491 141.025 128.578 141.082C128.635 141.141 128.692 141.17 128.75 141.198C128.864 141.286 128.95 141.345 129.035 141.431C129.237 141.606 129.465 141.751 129.664 141.926C130.779 142.828 131.922 143.67 133.037 144.542C133.151 144.629 133.237 144.688 133.351 144.804C134.066 145.385 135.038 146.198 135.81 146.721L136.725 147.418C137.182 147.795 138.125 148.085 138.81 148.085C139.896 148.085 140.754 147.91 141.526 147.33C141.783 147.127 142.07 146.865 142.298 146.605C142.412 146.459 142.527 146.342 142.612 146.169C142.812 145.819 143.013 145.501 143.07 145.093L144.898 135.503C145.756 131.233 146.5 126.959 147.358 122.688L148.845 115.015C149.015 114.203 149.758 110.685 149.758 109.813C149.758 108.914 149.444 108.069 148.872 107.431L148.472 107.052C146.614 105.628 144.556 106.907 142.728 107.661C141.155 108.3 139.554 108.999 137.982 109.667C135.036 110.916 132.122 112.224 129.177 113.444L127.148 114.316C126.233 114.723 125.32 115.1 124.403 115.477L118.314 118.093C118.057 118.211 117.886 118.268 117.63 118.385L116.285 118.967C114.457 119.751 112.684 120.536 110.855 121.291C110.398 121.465 109.942 121.67 109.512 121.874C108.597 122.252 107.71 122.687 106.796 123.036C105.709 123.472 104.681 124.168 104.224 125.302C104.138 125.476 104.051 125.884 104.051 126.144L104.022 126.087L104.017 126.092Z" fill="#fff"/></svg>