<svg width="634" height="313" viewBox="0 0 634 313" fill="none" xmlns="http://www.w3.org/2000/svg"><path fill-rule="evenodd" clip-rule="evenodd" d="M0.484375 222.288V308.542H87.3615V222.288H85.5866V306.767H2.25924V222.288H0.484375ZM0.484375 93.6367H2.25924V4.33066H85.5866V93.6367H87.3615V2.55579H0.484375V93.6367ZM201.916 222.288V308.542H288.793V222.288H287.018V306.767H203.69V222.288H201.916ZM203.69 93.6367H201.916V78.5199H114.315V2.55579H375.966V78.5199H288.793V93.6367H287.018V76.745H374.191V4.33066H116.09V76.745H203.69V93.6367ZM463.565 222.288C469.622 224.613 476.038 226.79 482.814 228.816C494.338 232.178 505.85 233.856 517.353 233.856C521.846 233.856 525.579 233.575 528.574 233.032C531.579 232.488 533.733 231.698 535.161 230.753C538.448 228.479 539.936 225.729 539.936 222.426C539.936 222.38 539.935 222.333 539.935 222.288H541.71C541.71 222.334 541.711 222.38 541.711 222.426C541.711 226.401 539.859 229.667 536.155 232.223C532.737 234.495 526.469 235.631 517.353 235.631C505.673 235.631 493.993 233.927 482.313 230.519C473.912 228.007 466.053 225.263 458.736 222.288H463.565ZM408.148 222.288L381.704 275.949L383.139 276.781C395.489 283.938 409.117 290.228 424.017 295.656L424.032 295.661L424.046 295.666C438.937 300.804 454.256 304.943 470.001 308.082L470.019 308.085L470.037 308.089C486.081 310.944 501.427 312.376 516.071 312.376C530.446 312.376 544.538 310.799 558.344 307.645L558.361 307.642L558.378 307.637C572.238 304.183 584.819 298.709 596.108 291.207C607.471 283.655 616.498 273.634 623.183 261.176L623.187 261.168L623.191 261.161C628.919 250.239 632.171 237.265 633.006 222.288H631.228C630.396 237.025 627.193 249.708 621.619 260.337C615.067 272.548 606.236 282.345 595.125 289.728C584.015 297.112 571.623 302.507 557.949 305.915C544.274 309.039 530.315 310.601 516.071 310.601C501.542 310.601 486.301 309.181 470.348 306.341C454.68 303.217 439.439 299.1 424.625 293.988C409.811 288.592 396.279 282.345 384.029 275.246L410.127 222.288H408.148ZM483.933 93.6367H485.755C485.497 92.6061 485.37 91.5198 485.37 90.376C485.37 87.9304 485.885 85.951 486.83 84.361C487.772 82.777 489.205 81.4694 491.224 80.4633C495.458 78.3529 501.002 77.242 507.952 77.242C516.882 77.242 525.967 78.6324 535.215 81.4258C544.545 84.2444 553.156 87.4816 561.049 91.1347L561.073 91.1458L561.097 91.1562C563.077 92.0018 564.956 92.8286 566.736 93.6367H570.951C568.171 92.3151 565.119 90.9442 561.794 89.524C553.818 85.8323 545.129 82.5666 535.728 79.7268C526.327 76.887 517.068 75.4671 507.952 75.4671C500.83 75.4671 494.99 76.603 490.432 78.8748C485.874 81.1467 483.595 84.9804 483.595 90.376C483.595 91.512 483.708 92.5989 483.933 93.6367ZM593.27 93.6367L624.183 34.5743C623.658 34.3126 623.128 34.0499 622.592 33.7863C613.831 29.4736 603.678 24.9086 592.134 20.0914C580.169 14.9798 567.207 10.7201 553.248 7.31243C539.574 3.62071 525.33 1.77486 510.516 1.77486C490.575 1.77486 471.915 5.75054 454.537 13.7019C437.444 21.3693 423.628 32.7284 413.087 47.7793C404.214 60.449 399.076 75.7349 397.672 93.6367H395.892C397.301 75.4141 402.525 59.7666 411.633 46.7611C422.36 31.4443 436.429 19.8809 453.805 12.0851C471.423 4.02494 490.333 0 510.516 0C525.471 0 539.865 1.8628 553.69 5.59336C567.724 9.02039 580.77 13.3069 592.826 18.4568C605.099 23.5782 615.817 28.4211 624.975 32.9858L626.595 33.7934L595.273 93.6367H593.27Z" fill="#626AF5"/></svg>